<?xml version="1.0" encoding="utf-8"?>
<!-- Generator: Adobe Illustrator 15.0.2, SVG Export Plug-In . SVG Version: 6.00 Build 0)  -->
<!DOCTYPE svg PUBLIC "-//W3C//DTD SVG 1.1//EN" "http://www.w3.org/Graphics/SVG/1.1/DTD/svg11.dtd">
<svg version="1.1" id="レイヤー_4" xmlns="http://www.w3.org/2000/svg" xmlns:xlink="http://www.w3.org/1999/xlink" x="0px"
	 y="0px" width="595.281px" height="841.89px" viewBox="0 0 595.281 841.89" enable-background="new 0 0 595.281 841.89"
	 xml:space="preserve">
<g>
	<g>
		<path fill="#FFFFFF" stroke="#FFFFFF" stroke-width="0.25" stroke-miterlimit="10" d="M255.543,34.188
			c0.264,0,0.456,0.144,0.624,0.384c0.097,0.168,0.144,0.312,0.144,0.48c0,0.288-0.144,0.552-0.479,0.72
			c-1.487,0.792-3.312,1.56-4.872,2.064c-0.145,0.048-0.264,0.072-0.385,0.072c-0.408,0-0.72-0.24-0.863-0.648
			c-0.024-0.096-0.049-0.216-0.049-0.312c0-0.36,0.217-0.672,0.648-0.792c1.561-0.432,3.36-1.128,4.681-1.824
			C255.207,34.235,255.375,34.188,255.543,34.188z M257.271,47.869c0.264,0,0.527,0.096,0.695,0.288
			c0.121,0.168,0.192,0.336,0.192,0.504c0,0.264-0.144,0.504-0.432,0.648c-1.849,0.888-4.536,1.608-6.769,1.848
			c-0.072,0-0.12,0-0.168,0c-0.457,0-0.769-0.264-0.84-0.744c-0.024-0.072-0.024-0.12-0.024-0.168c0-0.408,0.288-0.696,0.744-0.744
			c2.112-0.192,4.32-0.72,6.072-1.512C256.911,47.917,257.104,47.869,257.271,47.869z M254.991,31.211
			c0.264,0.192,0.384,0.432,0.384,0.696c0,0.168-0.048,0.336-0.168,0.504c-0.191,0.264-0.48,0.408-0.768,0.408
			c-0.168,0-0.36-0.048-0.504-0.168c-0.841-0.6-1.945-1.272-2.833-1.728c-0.288-0.144-0.432-0.36-0.432-0.624
			c0-0.168,0.048-0.36,0.144-0.528c0.168-0.24,0.432-0.384,0.721-0.384c0.168,0,0.312,0.024,0.455,0.096
			C252.879,29.867,254.15,30.563,254.991,31.211z M254.271,47.413c-1.369,0-1.945-0.504-1.945-1.728v-6.193
			c0-1.224,0.648-1.752,2.089-1.752h12.601c1.537,0,2.137,0.528,2.137,1.752v6.193c0,1.224-0.6,1.728-1.969,1.728H254.271z
			 M267.448,39.66c0-0.432-0.24-0.552-0.696-0.552h-12.049c-0.432,0-0.672,0.12-0.672,0.552v0.864h13.417V39.66z M267.448,41.82
			h-13.417v1.416h13.417V41.82z M254.031,44.532v0.912c0,0.456,0.24,0.576,0.672,0.576h12.049c0.456,0,0.696-0.12,0.696-0.576
			v-0.912H254.031z M259.551,31.955c-0.575,0.696-1.224,1.344-1.896,1.873c-0.265,0.216-0.528,0.312-0.744,0.312
			c-0.216,0-0.433-0.096-0.601-0.312c-0.144-0.144-0.215-0.336-0.215-0.528c0-0.24,0.119-0.48,0.359-0.672
			c1.272-0.96,2.377-2.353,3.072-3.576c0.145-0.264,0.408-0.408,0.696-0.408c0.12,0,0.265,0.024,0.384,0.072
			c0.36,0.144,0.553,0.36,0.553,0.648c0,0.12-0.049,0.264-0.121,0.408c-0.144,0.24-0.287,0.504-0.432,0.744h8.833
			c1.056,0,1.56,0.528,1.56,1.152c0,0.288-0.119,0.624-0.359,0.936c-0.576,0.768-1.344,1.44-1.944,1.848
			c-0.192,0.12-0.408,0.192-0.601,0.192c-0.239,0-0.479-0.096-0.623-0.312c-0.121-0.12-0.168-0.288-0.168-0.432
			c0-0.24,0.119-0.48,0.359-0.624c0.48-0.288,0.936-0.648,1.272-1.008c0.071-0.096,0.096-0.144,0.096-0.192
			c0-0.096-0.12-0.12-0.36-0.12h-4.584c0.359,1.224,1.104,2.088,2.16,2.785c1.488,0.96,3.192,1.416,4.92,1.728
			c0.457,0.072,0.697,0.336,0.697,0.744c0,0.072,0,0.168-0.025,0.264c-0.096,0.456-0.383,0.672-0.791,0.672
			c-0.096,0-0.192,0-0.289-0.024c-3.455-0.696-6.456-2.185-7.488-4.561c-0.96,2.256-3.288,3.312-6.192,3.792
			c-0.096,0.024-0.192,0.024-0.288,0.024c-0.408,0-0.72-0.192-0.792-0.624c-0.024-0.072-0.024-0.12-0.024-0.192
			c0-0.384,0.265-0.648,0.697-0.72c2.688-0.432,5.088-1.44,5.615-3.889H259.551z M263.248,48.685c0-0.168,0.048-0.336,0.191-0.48
			c0.168-0.216,0.433-0.336,0.721-0.336c0.168,0,0.336,0.048,0.504,0.12c1.632,0.744,3.936,1.296,6.121,1.488
			c0.527,0.048,0.768,0.336,0.768,0.768c0,0.024,0,0.072-0.024,0.12c-0.048,0.48-0.384,0.792-0.84,0.792c-0.048,0-0.097,0-0.168,0
			c-2.425-0.288-4.849-0.912-6.816-1.824C263.416,49.189,263.248,48.949,263.248,48.685z"/>
		<path fill="#FFFFFF" stroke="#FFFFFF" stroke-width="0.25" stroke-miterlimit="10" d="M278.295,43.188
			c0,0.096-0.023,0.192-0.048,0.312c-0.624,2.208-1.656,4.8-2.832,6.84c-0.216,0.312-0.505,0.456-0.816,0.456
			c-0.168,0-0.336-0.048-0.504-0.144c-0.336-0.192-0.504-0.48-0.504-0.792c0-0.144,0.048-0.312,0.144-0.48
			c1.129-1.872,2.137-4.296,2.736-6.433c0.12-0.432,0.408-0.648,0.793-0.648c0.119,0,0.239,0.024,0.359,0.048
			C278.079,42.492,278.295,42.804,278.295,43.188z M278.607,38.436c0,0.192-0.072,0.384-0.217,0.552
			c-0.191,0.24-0.455,0.36-0.744,0.36c-0.24,0-0.455-0.096-0.647-0.264c-0.912-0.816-2.04-1.632-3.001-2.208
			c-0.215-0.12-0.336-0.36-0.336-0.648c0-0.192,0.072-0.384,0.192-0.576c0.192-0.24,0.456-0.36,0.72-0.36
			c0.168,0,0.336,0.048,0.504,0.12c1.08,0.6,2.232,1.464,3.169,2.28C278.463,37.884,278.607,38.148,278.607,38.436z M279.52,32.58
			c0,0.216-0.072,0.432-0.24,0.6c-0.192,0.216-0.456,0.312-0.696,0.312c-0.239,0-0.479-0.096-0.672-0.288
			c-0.841-0.84-1.921-1.776-2.809-2.424c-0.216-0.168-0.336-0.384-0.336-0.624c0-0.216,0.072-0.408,0.24-0.6
			c0.192-0.216,0.456-0.36,0.744-0.36c0.192,0,0.36,0.048,0.552,0.168c0.912,0.6,2.064,1.632,2.928,2.496
			C279.424,32.051,279.52,32.315,279.52,32.58z M287.512,33.779c0.336-0.744,0.624-1.512,0.792-2.304h-5.136
			c-0.721,0-0.984,0.216-0.984,0.936c0,2.833-0.049,5.544-0.24,7.945c-0.288,4.32-1.057,7.033-2.232,9.601
			c-0.144,0.336-0.48,0.552-0.863,0.552c-0.145,0-0.312-0.024-0.457-0.096c-0.336-0.168-0.504-0.408-0.504-0.72
			c0-0.192,0.049-0.384,0.145-0.576c1.199-2.472,1.872-4.848,2.16-9.049c0.168-2.136,0.216-4.824,0.216-8.137
			c0-1.44,0.792-2.16,2.232-2.16h12.433c0.48,0,0.696,0.336,0.696,0.816c0,0.504-0.216,0.888-0.696,0.888h-4.896
			c-0.264,0.768-0.527,1.56-0.84,2.304h3.408c1.393,0,1.992,0.504,1.992,1.776v5.232c0,1.296-0.6,1.824-1.992,1.824h-2.664v6.121
			c0,1.584-0.624,2.16-2.424,2.16c-0.576,0-1.225-0.048-1.729-0.168c-0.432-0.096-0.672-0.408-0.672-0.816
			c0-0.048,0-0.12,0.023-0.192c0.072-0.48,0.408-0.696,0.721-0.696c0.048,0,0.096,0,0.144,0.024c0.36,0.072,0.816,0.144,1.2,0.144
			c0.816,0,0.96-0.144,0.96-0.84v-5.736h-2.616c-1.393,0-1.992-0.528-1.992-1.824v-5.232c0-1.272,0.6-1.776,1.992-1.776
			L287.512,33.779L287.512,33.779z M285.016,43.668c0.096,0,0.216,0.024,0.336,0.048c0.36,0.096,0.624,0.384,0.624,0.768
			c0,0.072,0,0.144-0.048,0.24c-0.504,1.752-1.344,3.48-2.328,4.752c-0.191,0.264-0.456,0.384-0.721,0.384
			c-0.215,0-0.432-0.072-0.623-0.216c-0.192-0.168-0.312-0.432-0.312-0.672c0-0.192,0.072-0.408,0.216-0.552
			c0.888-1.08,1.632-2.544,2.112-4.128C284.367,43.884,284.632,43.668,285.016,43.668z M293.008,37.38v-1.536
			c0-0.456-0.215-0.576-0.647-0.576h-6.288c-0.433,0-0.648,0.12-0.648,0.576v1.536H293.008z M285.424,40.548
			c0,0.456,0.216,0.576,0.648,0.576h6.288c0.433,0,0.647-0.12,0.647-0.576v-1.68h-7.584L285.424,40.548L285.424,40.548z
			 M291.952,44.532c0-0.384,0.265-0.696,0.647-0.792c0.097-0.024,0.193-0.048,0.289-0.048c0.359,0,0.647,0.192,0.791,0.576
			c0.529,1.512,1.273,2.928,2.209,4.104c0.145,0.168,0.216,0.384,0.216,0.576c0,0.288-0.12,0.528-0.36,0.72
			c-0.191,0.12-0.384,0.192-0.6,0.192c-0.264,0-0.553-0.12-0.721-0.36c-1.008-1.272-1.896-3.024-2.424-4.681
			C291.977,44.725,291.952,44.628,291.952,44.532z"/>
		<path fill="#FFFFFF" stroke="#FFFFFF" stroke-width="0.25" stroke-miterlimit="10" d="M305.126,32.867
			c-1.68,0.528-3.408,0.792-5.424,0.792c-0.527,0-0.863-0.312-0.889-0.937c0-0.024,0-0.024,0-0.048c0-0.48,0.312-0.912,0.863-0.912
			c2.4-0.048,4.488-0.264,6.818-0.672c0.119-0.024,0.238-0.024,0.359-0.024c0.455,0,0.742,0.192,0.959,0.576
			c0.098,0.192,0.145,0.384,0.145,0.576c0,0.312-0.145,0.624-0.455,0.84c-3.938,2.784-5.881,6.168-5.881,9.625
			c0,3.625,2.232,5.4,4.969,5.4c4.08,0,6.264-2.688,6.264-8.161c0-2.664-0.479-5.376-1.295-7.608
			c-0.049-0.12-0.072-0.264-0.072-0.36c0-0.408,0.264-0.672,0.721-0.84c0.119-0.024,0.264-0.048,0.383-0.048
			c0.385,0,0.723,0.216,0.891,0.576c1.463,3.36,3.623,6.217,5.928,8.137c0.289,0.24,0.408,0.528,0.408,0.84
			c0,0.24-0.098,0.48-0.266,0.696c-0.191,0.216-0.455,0.336-0.744,0.336c-0.238,0-0.504-0.096-0.742-0.336
			c-1.824-1.632-3.146-3.648-4.201-6.024l-0.145,0.048c0.623,1.873,0.984,3.769,0.984,5.329c0,5.953-2.881,9.433-8.064,9.433
			c-3.889,0-7.01-2.448-7.01-7.465c0-3.528,2.088-7.057,5.568-9.625L305.126,32.867z M317.73,32.916
			c0,0.288-0.146,0.552-0.434,0.696c-0.096,0.072-0.24,0.096-0.385,0.096c-0.287,0-0.6-0.144-0.791-0.48
			c-0.361-0.696-0.889-1.656-1.32-2.304c-0.07-0.12-0.121-0.264-0.121-0.408c0-0.264,0.146-0.504,0.434-0.672
			c0.145-0.072,0.289-0.12,0.432-0.12c0.266,0,0.506,0.12,0.674,0.36c0.479,0.72,1.031,1.704,1.393,2.376
			C317.679,32.604,317.73,32.771,317.73,32.916z M320.296,31.787c0,0.312-0.168,0.6-0.432,0.72c-0.121,0.048-0.24,0.072-0.361,0.072
			c-0.287,0-0.6-0.144-0.814-0.504c-0.287-0.576-0.791-1.464-1.178-2.088c-0.096-0.144-0.143-0.264-0.143-0.408
			c0-0.264,0.168-0.504,0.432-0.648c0.145-0.072,0.287-0.096,0.434-0.096c0.238,0,0.479,0.12,0.646,0.336
			c0.455,0.6,0.938,1.464,1.297,2.16C320.273,31.475,320.296,31.643,320.296,31.787z"/>
		<path fill="#FFFFFF" stroke="#FFFFFF" stroke-width="0.25" stroke-miterlimit="10" d="M327.183,41.46
			c1.465-2.04,3.217-3.168,5.064-3.168c1.248,0,1.992,0.576,2.4,1.296c0.432,0.768,0.646,1.656,0.719,4.057
			c0.072,2.16,0.24,2.928,0.553,3.36c0.336,0.432,0.961,0.624,1.584,0.624c0.865,0,1.68-0.408,2.209-1.176
			c0.672-0.96,1.199-2.424,1.463-4.176c0.098-0.552,0.434-0.864,0.938-0.864c0.072,0,0.168,0,0.24,0.024
			c0.527,0.096,0.814,0.456,0.814,0.984c0,0.072,0,0.168-0.021,0.24c-0.312,2.256-1.059,4.057-2.041,5.281
			c-0.959,1.272-2.305,1.776-3.744,1.776c-1.295,0-2.305-0.36-2.93-1.104c-0.6-0.696-0.959-1.8-1.031-4.2
			c-0.049-1.849-0.119-2.665-0.406-3.385c-0.217-0.528-0.576-0.84-1.297-0.84c-1.514,0-3.146,1.104-4.346,2.952
			c-0.91,1.392-1.99,3.769-2.76,5.953c-0.217,0.528-0.504,0.768-0.912,0.768c-0.121,0-0.264-0.024-0.406-0.072
			c-0.457-0.12-0.723-0.456-0.723-0.912c0-0.168,0.023-0.336,0.098-0.504c2.137-5.977,4.584-12.529,6.814-18.146
			c0.168-0.456,0.504-0.696,0.912-0.696c0.145,0,0.289,0.024,0.434,0.072c0.432,0.12,0.646,0.432,0.646,0.84
			c0,0.144-0.023,0.336-0.096,0.504c-1.176,2.928-2.305,5.665-3.336,8.281c-0.312,0.768-0.672,1.608-1.008,2.184L327.183,41.46z"/>
	</g>
	<g>
		<g>
			<path fill="#FFFFFF" d="M225.693,40.063c0.025,1.253,0.022,2.499,0.035,3.748c-0.693,0.019-1.382,0.009-2.074,0.026
				c-0.009-0.669-0.023-1.534-0.029-2.266c-0.003-0.26-0.028-0.53,0.012-0.75c0.057-0.311,0.259-0.639,0.554-0.835
				C224.726,39.63,225.287,39.81,225.693,40.063z"/>
			<path fill="#FFFFFF" d="M230.768,40.224c0.566,0.312,1.271,0.728,1.885,1.076c0.334,0.188,0.682,0.288,0.944,0.668
				c0.267,0.389,0.256,0.792,0.141,1.128c-0.104,0.306-0.328,0.562-0.728,0.772c-0.078-0.005-0.144-0.06-0.209-0.097
				c-0.995-0.574-2.046-1.154-3.055-1.734c0.014-0.084,0.067-0.155,0.111-0.23c0.117-0.21,0.251-0.438,0.378-0.663
				C230.41,40.833,230.59,40.485,230.768,40.224z"/>
			<path fill="#FFFFFF" d="M224.673,44.612c0.06-0.004,0.088,0.059,0.125,0.092c0.563,0.515,1.169,1.072,1.74,1.602
				c-0.265,0.019-0.521,0.007-0.784,0.022c-0.008,0.479,0.01,0.936,0.017,1.407c0.007,0.458-0.073,0.942,0.146,1.44
				c-0.45-0.243-1.025-0.584-1.524-0.862c-0.24-0.132-0.438-0.268-0.605-0.606c-0.238-0.485-0.047-0.901-0.115-1.362
				c-0.263-0.01-0.53-0.003-0.797,0.002C223.453,45.762,224.076,45.19,224.673,44.612z"/>
			<path fill="#FFFFFF" d="M231.016,44.451c0.146,0.197,0.282,0.429,0.418,0.662c0.616-0.406,1.412-0.777,2-1.179
				c0.159-0.109,0.277-0.25,0.384-0.377c0.01,0.505,0.015,1.068,0.02,1.598c0.002,0.18,0.013,0.361-0.022,0.522
				c-0.056,0.266-0.228,0.56-0.495,0.746c-0.235,0.164-0.534,0.295-0.834,0.478c0.098,0.218,0.264,0.455,0.387,0.679
				c0.005,0.049-0.055,0.004-0.053,0.004c-0.366-0.088-0.759-0.221-1.133-0.336c-0.402-0.125-0.824-0.213-1.209-0.347
				C230.637,46.079,230.852,45.271,231.016,44.451z"/>
			<path fill="#FFFFFF" d="M226.053,48.284c1.078-0.645,2.144-1.239,3.223-1.886c0.35,0.596,0.701,1.191,1.053,1.787
				c-0.402,0.237-0.832,0.49-1.257,0.74c-0.437,0.258-0.86,0.546-1.246,0.734c-0.288,0.141-0.608,0.139-0.849,0.075
				c-0.389-0.104-0.798-0.45-0.901-0.969C226.041,48.597,226.047,48.456,226.053,48.284z"/>
			<path fill="#FFFFFF" d="M228.972,38.297c0.214,0.78,0.396,1.625,0.608,2.434c-0.805,0.271-1.602,0.504-2.4,0.754
				c0.107-0.231,0.252-0.453,0.365-0.684c-0.512-0.294-1.065-0.618-1.599-0.915c-0.179-0.1-0.354-0.213-0.534-0.276
				c-0.127-0.047-0.286-0.069-0.404-0.105c0.561-0.308,1.115-0.689,1.602-0.944c0.796-0.417,1.35,0.08,1.965,0.438
				C228.705,38.765,228.845,38.533,228.972,38.297z"/>
		</g>
		<g>
			<path fill="#FFFFFF" d="M219.252,21.816c0.779-0.083,1.593,0.083,1.962,0.581c0.256,0.345,0.267,0.803,0.436,1.163
				c0.3,0.637,0.669,1.212,1.018,1.78c0.363,0.591,0.716,1.165,1.126,1.671c0.823,1.015,1.817,1.836,2.906,2.688
				c1.036,0.811,2.067,1.557,3.27,2.325c1.136,0.727,2.266,1.424,3.052,2.543c0.283,0.404,0.502,0.9,0.763,1.38
				c1.468,2.699,3.011,5.403,4.505,8.137c0.257,0.471,0.567,0.948,0.727,1.38c0.367,1.002,0.288,2.19,0.072,3.125
				c-0.639,2.761-2.607,4.622-4.867,5.739c-0.772,0.382-1.627,0.733-2.471,1.09c-0.896,0.379-1.863,0.618-2.906,0.618
				c-1.638,0-2.971-0.558-3.96-1.344c-0.315-0.25-0.661-0.502-0.908-0.835c-0.3-0.405-0.524-0.913-0.8-1.38
				c-1.3-2.214-2.673-4.505-3.995-6.757c-0.529-0.9-1.189-1.794-1.562-2.725c-0.336-0.839-0.497-1.872-0.509-2.906
				c-0.01-1.023-0.089-2.12-0.182-3.197c-0.167-1.954-0.448-4.036-1.09-5.667c-0.297-0.756-0.833-1.452-1.271-2.035
				c-0.192-0.256-0.459-0.634-0.763-0.908c-0.346-0.313-0.646-0.439-0.763-0.945c-0.199-0.862,0.264-1.693,0.654-2.216
				c0.876-1.173,1.973-1.912,3.306-2.579C217.733,22.175,218.406,21.907,219.252,21.816z M219.507,23.087
				c-1.649,0.125-3.384,1.305-4.287,2.252c-0.428,0.449-0.896,1.031-0.944,1.671c0.679,0.321,1.448,0.043,2.034-0.182
				c1.264-0.486,2.136-1.191,2.979-2.034c0.417-0.417,0.875-0.918,0.908-1.598C219.994,23.036,219.679,23.075,219.507,23.087z
				 M216.491,29.663c0.307,0.473,0.498,0.96,0.69,1.526c0.73,2.149,1.029,4.839,1.162,7.628c0.068,1.438,0.071,2.818,0.545,3.887
				c0.187,0.421,0.507,0.833,0.763,1.271c1.539,2.624,3.086,5.242,4.613,7.81c0.267,0.447,0.479,0.943,0.764,1.308
				c0.763,0.974,2.219,1.678,3.851,1.671c1.3-0.005,2.18-0.473,3.124-0.872c0.52-0.22,1.068-0.426,1.525-0.654
				c1.74-0.868,3.064-1.979,3.888-3.778c0.363-0.794,0.646-1.768,0.545-2.797c-0.091-0.924-0.604-1.477-0.981-2.179
				c-1.402-2.61-2.753-5.088-4.178-7.666c-0.293-0.53-0.556-1.041-0.871-1.489c-0.67-0.951-1.608-1.548-2.58-2.18
				c-1.462-0.951-2.83-1.899-4.141-2.979c-0.869-0.716-1.73-1.465-2.434-2.325c-0.712-0.869-1.229-1.878-1.854-2.906
				c-0.072-0.084-0.051,0.047-0.072,0.073c-1.268,1.506-2.908,2.828-5.23,3.342C215.873,28.838,216.212,29.233,216.491,29.663z"/>
		</g>
	</g>
</g>
</svg>
