<?xml version="1.0" encoding="utf-8"?>
<!-- Generator: Adobe Illustrator 15.0.2, SVG Export Plug-In . SVG Version: 6.00 Build 0)  -->
<!DOCTYPE svg PUBLIC "-//W3C//DTD SVG 1.1//EN" "http://www.w3.org/Graphics/SVG/1.1/DTD/svg11.dtd">
<svg version="1.1" id="レイヤー_4" xmlns="http://www.w3.org/2000/svg" xmlns:xlink="http://www.w3.org/1999/xlink" x="0px"
	 y="0px" width="279.892px" height="34.18px" viewBox="155.24 23.51 279.892 34.18"
	 enable-background="new 155.24 23.51 279.892 34.18" xml:space="preserve">
<g>
	<g>
		<path fill="#FFFFFF" stroke="#FFFFFF" stroke-width="0.25" stroke-miterlimit="10" d="M202.443,39.54h5.113
			c0.456,0,0.695,0.336,0.695,0.816s-0.239,0.84-0.695,0.84h-5.113v3.768c1.896-0.288,3.793-0.672,5.353-1.08
			c0.097-0.024,0.192-0.048,0.265-0.048c0.384,0,0.624,0.24,0.72,0.648c0,0.096,0.024,0.192,0.024,0.288
			c0,0.36-0.217,0.624-0.601,0.744c-1.656,0.456-3.72,0.912-5.761,1.248v3.528c0,0.456-0.336,0.72-0.912,0.72
			c-0.527,0-0.888-0.264-0.888-0.72v-3.264c-0.288,0.024-0.576,0.072-0.864,0.096c-0.023,0-0.048,0-0.096,0
			c-0.408,0-0.72-0.312-0.769-0.84c0-0.048,0-0.096,0-0.144c0-0.504,0.265-0.816,0.624-0.84c0.36-0.024,0.721-0.072,1.104-0.12
			V32.987c0-1.2,0.48-1.8,1.632-2.04c1.849-0.408,3.889-1.056,5.281-1.824c0.144-0.072,0.312-0.096,0.456-0.096
			c0.336,0,0.647,0.144,0.815,0.48c0.097,0.192,0.145,0.36,0.145,0.528c0,0.336-0.192,0.576-0.553,0.72
			c-1.584,0.792-3.647,1.392-5.304,1.776c-0.48,0.096-0.673,0.288-0.673,0.816v1.584h5.209c0.432,0,0.648,0.36,0.648,0.84
			c0,0.456-0.217,0.816-0.648,0.816h-5.209v2.953H202.443z M209.74,40.764c-0.456,0-0.672-0.36-0.672-0.84
			c0-0.456,0.216-0.84,0.672-0.84h8.521c1.08,0,1.681,0.552,1.681,1.416c0,0.336-0.096,0.696-0.264,1.104
			c-0.744,1.584-2.041,3.192-3.648,4.657c1.536,1.2,3.312,2.088,5.112,2.664c0.408,0.12,0.6,0.432,0.6,0.816
			c0,0.12-0.023,0.264-0.071,0.408c-0.12,0.432-0.48,0.648-0.889,0.648c-0.096,0-0.216-0.024-0.336-0.048
			c-2.064-0.672-4.08-1.824-5.809-3.36c-1.992,1.536-4.345,2.76-6.696,3.432c-0.12,0.024-0.24,0.048-0.336,0.048
			c-0.36,0-0.672-0.192-0.816-0.625c-0.048-0.12-0.072-0.264-0.072-0.36c0-0.384,0.24-0.672,0.624-0.792
			c2.28-0.624,4.345-1.656,6.073-2.88c-0.912-1.008-1.704-2.112-2.328-3.288c-0.312-0.624-0.576-1.248-0.816-1.896
			c-0.024-0.096-0.072-0.168-0.096-0.264H209.74z M216.173,31.883c0-0.48-0.24-0.624-0.672-0.624h-2.137
			c-0.432,0-0.647,0.168-0.647,0.624c-0.024,2.64-1.008,4.752-2.616,6.097c-0.216,0.192-0.48,0.288-0.72,0.288
			c-0.265,0-0.505-0.096-0.696-0.312c-0.145-0.168-0.24-0.384-0.24-0.6c0-0.24,0.12-0.48,0.336-0.672
			c1.393-1.08,2.208-2.52,2.208-5.28c0-1.272,0.648-1.824,1.944-1.824h3.024c1.296,0,1.944,0.552,1.944,1.8v4.008
			c0,0.456,0.12,0.576,0.888,0.576c0.696,0,0.912-0.096,1.057-0.408c0.144-0.288,0.239-1.008,0.264-1.656
			c0.024-0.384,0.312-0.6,0.768-0.6c0.024,0,0.049,0,0.072,0c0.48,0.024,0.792,0.264,0.792,0.696
			c-0.023,1.176-0.24,2.112-0.527,2.616c-0.36,0.6-1.009,0.936-2.593,0.936c-1.944,0-2.448-0.384-2.448-1.56L216.173,31.883
			L216.173,31.883z M211.9,40.764c0.672,1.632,1.584,3.12,2.856,4.368c1.32-1.152,2.353-2.448,3-3.744
			c0.072-0.168,0.12-0.288,0.12-0.384c0-0.168-0.12-0.24-0.432-0.24H211.9z"/>
		<path fill="#FFFFFF" stroke="#FFFFFF" stroke-width="0.25" stroke-miterlimit="10" d="M228.412,37.812
			c0.12,0,0.216,0.024,0.336,0.048c0.48,0.072,0.792,0.432,0.792,0.96c0,0.072,0,0.168-0.024,0.264
			c-0.672,3.264-1.968,6.457-3.576,8.737c-0.239,0.36-0.6,0.528-0.936,0.528c-0.216,0-0.408-0.048-0.576-0.168
			c-0.336-0.192-0.504-0.504-0.504-0.84c0-0.216,0.071-0.456,0.216-0.648c1.561-2.112,2.784-5.16,3.336-8.064
			C227.572,38.076,227.956,37.812,228.412,37.812z M235.204,49.597c0,0.624-0.504,0.912-1.08,0.912
			c-0.575,0-0.983-0.288-0.983-0.912V35.364H225.1c-0.504,0-0.84-0.408-0.84-0.96c0-0.528,0.336-0.984,0.84-0.984h8.041v-2.808
			c0-0.624,0.408-0.912,0.983-0.912c0.576,0,1.08,0.288,1.08,0.912v2.808h8.474c0.504,0,0.84,0.456,0.84,0.984
			c0,0.552-0.336,0.96-0.84,0.96h-8.474V49.597L235.204,49.597z M239.981,37.836c0.455,0,0.863,0.24,0.983,0.816
			c0.576,2.928,1.801,5.88,3.528,8.017c0.12,0.192,0.192,0.432,0.192,0.648c0,0.36-0.168,0.672-0.433,0.864
			c-0.216,0.12-0.432,0.192-0.647,0.192c-0.336,0-0.672-0.168-0.937-0.528c-1.632-2.184-3.096-5.521-3.744-8.761
			c-0.024-0.096-0.024-0.192-0.024-0.288c0-0.504,0.337-0.864,0.793-0.936C239.789,37.836,239.885,37.836,239.981,37.836z
			 M240.893,28.523c0.24,0,0.48,0.096,0.673,0.36c0.624,0.84,1.08,1.656,1.512,2.544c0.072,0.12,0.096,0.264,0.096,0.408
			c0,0.288-0.144,0.528-0.432,0.696c-0.144,0.072-0.288,0.096-0.408,0.096c-0.288,0-0.552-0.144-0.672-0.408
			c-0.432-0.864-0.888-1.656-1.44-2.448c-0.12-0.144-0.168-0.312-0.168-0.48c0-0.24,0.145-0.48,0.433-0.648
			C240.605,28.571,240.749,28.523,240.893,28.523z M243.749,27.995c0.24,0,0.48,0.144,0.648,0.384
			c0.552,0.744,1.104,1.584,1.464,2.376c0.096,0.168,0.12,0.336,0.12,0.48c0,0.312-0.168,0.552-0.432,0.696
			c-0.12,0.048-0.265,0.096-0.385,0.096c-0.264,0-0.504-0.144-0.695-0.504c-0.385-0.792-0.816-1.608-1.345-2.329
			c-0.12-0.144-0.168-0.288-0.168-0.432c0-0.24,0.145-0.456,0.384-0.624C243.485,28.043,243.605,27.995,243.749,27.995z"/>
		<path fill="#FFFFFF" stroke="#FFFFFF" stroke-width="0.25" stroke-miterlimit="10" d="M249.244,41.196
			c-0.601,0-0.937-0.384-0.937-1.032c0-0.624,0.336-1.08,0.96-1.08h18.218c0.624,0,0.96,0.456,0.96,1.08
			c0,0.648-0.336,1.032-0.937,1.032H249.244z"/>
		<path fill="#FFFFFF" stroke="#FFFFFF" stroke-width="0.25" stroke-miterlimit="10" d="M276.58,31.307
			c0-0.6,0.408-0.984,1.032-0.984c0.6,0,1.056,0.36,1.056,1.008v5.185c0,3.864-0.479,6.673-1.32,8.641
			c-0.84,1.873-2.016,3.433-3.384,4.44c-0.288,0.24-0.601,0.336-0.889,0.336c-0.312,0-0.624-0.144-0.815-0.384
			c-0.192-0.216-0.265-0.456-0.265-0.72c0-0.336,0.169-0.648,0.48-0.84c1.225-0.864,2.28-2.112,2.977-3.769
			c0.72-1.8,1.128-4.2,1.128-7.873V31.307L276.58,31.307z M282.868,31.139c0-0.6,0.385-0.96,1.032-0.96
			c0.601,0,1.057,0.36,1.057,0.96L284.86,46.5c0,0.432,0.192,0.672,0.601,0.672c0.168,0,0.408-0.048,0.696-0.168
			c2.688-1.176,4.056-3.312,5.28-5.928c0.191-0.384,0.456-0.552,0.792-0.552c0.168,0,0.36,0.048,0.528,0.144
			c0.336,0.144,0.552,0.48,0.552,0.864c0,0.12-0.024,0.264-0.096,0.432c-1.465,3.624-4.393,6.576-7.225,7.272
			c-0.433,0.096-0.816,0.144-1.152,0.144c-1.345,0-2.064-0.768-2.064-2.304L282.868,31.139z"/>
		<path fill="#FFFFFF" stroke="#FFFFFF" stroke-width="0.25" stroke-miterlimit="10" d="M308.548,39.972c0,1.2-0.981,2.16-2.16,2.16
			c-1.198,0-2.157-0.96-2.157-2.16c0-1.2,0.959-2.16,2.157-2.16C307.564,37.812,308.548,38.796,308.548,39.972z"/>
		<path fill="#FFFFFF" stroke="#FFFFFF" stroke-width="0.25" stroke-miterlimit="10" d="M320.212,42.756
			c-0.457,0-0.744-0.384-0.744-0.912c0-0.528,0.287-0.888,0.744-0.888h9.217v-5.4h-5.28c-0.695,1.248-1.486,2.4-2.353,3.408
			c-0.19,0.216-0.434,0.336-0.672,0.336c-0.24,0-0.48-0.096-0.697-0.264c-0.215-0.168-0.336-0.408-0.336-0.672
			c0-0.216,0.099-0.456,0.24-0.648c1.729-1.944,3.096-4.44,3.84-6.96c0.146-0.384,0.435-0.576,0.793-0.576
			c0.146,0,0.287,0.024,0.435,0.072c0.454,0.144,0.646,0.408,0.646,0.768c0,0.12-0.023,0.24-0.072,0.36
			c-0.264,0.816-0.573,1.608-0.936,2.376h4.393v-4.152c0-0.432,0.433-0.72,0.982-0.72c0.529,0,0.938,0.288,0.938,0.72v4.152h7.683
			c0.432,0,0.719,0.384,0.719,0.912c0,0.504-0.287,0.888-0.719,0.888h-7.683v5.4h9.146c0.457,0,0.744,0.36,0.744,0.888
			c0,0.528-0.287,0.912-0.744,0.912h-9.146v7.584c0,0.456-0.407,0.744-0.938,0.744c-0.551,0-0.982-0.288-0.982-0.744v-7.584H320.212
			z"/>
		<path fill="#FFFFFF" stroke="#FFFFFF" stroke-width="0.25" stroke-miterlimit="10" d="M351.029,42.948
			c1.535-0.24,3-0.504,4.317-0.816c0.121-0.024,0.193-0.024,0.289-0.024c0.433,0,0.672,0.24,0.722,0.672
			c0.022,0.072,0.022,0.144,0.022,0.192c0,0.408-0.217,0.696-0.697,0.792c-1.438,0.312-3.022,0.6-4.653,0.864v3.888
			c0,1.704-0.771,2.328-2.664,2.328c-1.152,0-2.041-0.12-2.689-0.288c-0.336-0.096-0.551-0.408-0.551-0.768
			c0-0.096,0-0.168,0.023-0.264c0.118-0.432,0.383-0.624,0.741-0.624c0.072,0,0.146,0,0.218,0.024
			c0.526,0.144,1.346,0.24,1.991,0.24c1.011,0,1.199-0.168,1.199-0.936v-3.336c-1.656,0.216-3.336,0.408-4.92,0.552
			c-0.047,0-0.072,0-0.119,0c-0.457,0-0.721-0.288-0.744-0.816c0-0.024,0-0.048,0-0.072c0-0.456,0.24-0.768,0.722-0.816
			c1.653-0.144,3.385-0.312,5.062-0.552V41.7c0-0.432,0.289-0.672,0.865-0.672c0.072,0,0.145,0,0.215,0.024
			c1.01-0.48,1.945-1.056,2.521-1.536c0.096-0.096,0.145-0.144,0.145-0.216c0-0.072-0.096-0.12-0.289-0.12h-8.184
			c-0.435,0-0.648-0.336-0.648-0.816c0-0.48,0.217-0.816,0.648-0.816h6.889c1.176-1.656,1.969-3.336,2.545-4.896
			c0.119-0.312,0.383-0.456,0.695-0.456c0.119,0,0.24,0.024,0.385,0.048c0.359,0.12,0.551,0.408,0.551,0.72
			c0,0.096-0.022,0.192-0.047,0.288c-0.647,1.488-1.271,2.784-2.377,4.296h0.771c0.813,0,1.248,0.504,1.248,1.104
			c0,0.384-0.193,0.84-0.554,1.2c-0.912,0.864-2.305,1.68-3.647,2.328V42.948L351.029,42.948z M354.509,29.027
			c0.336,0,0.601,0.192,0.722,0.552c0.047,0.12,0.069,0.24,0.069,0.36c0,0.336-0.19,0.6-0.553,0.72
			c-3.023,1.032-6.863,1.728-10.271,2.016c-0.022,0-0.022,0-0.049,0c-0.455,0-0.768-0.312-0.791-0.84
			c0-0.504,0.265-0.816,0.769-0.84c3.289-0.192,6.914-0.888,9.77-1.896C354.292,29.051,354.412,29.027,354.509,29.027z
			 M345.869,33.131c0.287,0,0.526,0.144,0.695,0.432c0.385,0.648,0.768,1.584,1.03,2.352c0.023,0.096,0.047,0.192,0.047,0.264
			c0,0.312-0.188,0.6-0.551,0.72c-0.121,0.048-0.24,0.072-0.358,0.072c-0.337,0-0.603-0.168-0.695-0.48
			c-0.217-0.696-0.625-1.632-0.961-2.256c-0.072-0.144-0.097-0.264-0.097-0.384c0-0.264,0.191-0.48,0.479-0.624
			C345.605,33.155,345.724,33.131,345.869,33.131z M349.515,32.555c0.289,0,0.556,0.144,0.697,0.432
			c0.383,0.696,0.84,1.68,1.031,2.328c0.049,0.144,0.072,0.264,0.072,0.384c0,0.336-0.191,0.552-0.527,0.696
			c-0.146,0.072-0.264,0.096-0.408,0.096c-0.312,0-0.6-0.168-0.672-0.504c-0.145-0.552-0.576-1.584-0.936-2.28
			c-0.099-0.144-0.121-0.288-0.121-0.408c0-0.288,0.19-0.504,0.479-0.648C349.251,32.58,349.396,32.555,349.515,32.555z
			 M357.388,29.915c0-0.456,0.361-0.72,0.912-0.72c0.603,0,0.938,0.264,0.938,0.72v17.882c0,0.936,0.168,1.056,1.801,1.056
			c1.703,0,2.16-0.24,2.375-1.08c0.217-0.84,0.336-1.944,0.361-3.264c0-0.456,0.286-0.768,0.791-0.768c0.022,0,0.049,0,0.071,0
			c0.527,0,0.89,0.288,0.89,0.768c0,0.024,0,0.024,0,0.048c-0.05,1.824-0.24,3.385-0.576,4.369c-0.289,0.864-0.84,1.392-1.945,1.536
			c-0.504,0.072-1.391,0.144-2.279,0.144c-0.721,0-1.416-0.048-1.92-0.168c-1.08-0.24-1.416-0.816-1.416-2.016V29.915H357.388z"/>
		<path fill="#FFFFFF" stroke="#FFFFFF" stroke-width="0.25" stroke-miterlimit="10" d="M374.908,32.315c0,0.024,0,0.048,0,0.072
			c-0.146,2.544-0.551,5.232-1.08,7.345c-0.912,3.816-2.447,6.745-4.176,8.833c-0.24,0.312-0.576,0.48-0.912,0.48
			c-0.24,0-0.504-0.096-0.722-0.288c-0.217-0.192-0.336-0.48-0.336-0.768c0-0.312,0.119-0.6,0.312-0.864
			c1.606-1.944,2.977-4.561,3.816-7.993c0.504-1.968,0.862-4.464,0.961-6.865c0.021-0.648,0.383-1.008,1.028-1.008
			c0.025,0,0.051,0,0.051,0C374.572,31.283,374.908,31.739,374.908,32.315z M382.06,31.259c0.724,0,1.06,0.36,1.06,1.008
			c0.119,2.376,0.646,4.849,1.199,6.865c0.889,3.36,2.278,5.929,3.936,7.921c0.193,0.216,0.289,0.504,0.289,0.792
			c0,0.336-0.145,0.672-0.408,0.912c-0.217,0.144-0.455,0.24-0.694,0.24c-0.287,0-0.603-0.144-0.841-0.432
			c-1.774-2.112-3.289-4.993-4.319-8.761c-0.576-2.185-1.105-4.921-1.248-7.417c0-0.048,0-0.072,0-0.12
			c0-0.552,0.336-0.984,0.961-1.008C382.013,31.259,382.037,31.259,382.06,31.259z M389.31,31.715c0,1.464-1.176,2.64-2.641,2.64
			s-2.641-1.176-2.641-2.64c0-1.464,1.176-2.64,2.641-2.64S389.31,30.251,389.31,31.715z M385.181,31.715
			c0,0.816,0.675,1.488,1.488,1.488c0.816,0,1.488-0.672,1.488-1.488c0-0.816-0.672-1.488-1.488-1.488
			C385.855,30.227,385.181,30.899,385.181,31.715z"/>
		<path fill="#FFFFFF" stroke="#FFFFFF" stroke-width="0.25" stroke-miterlimit="10" d="M395.789,35.724
			c0.336,0,0.623,0.168,0.791,0.504c0.744,1.416,1.512,3.408,1.992,4.969c0.022,0.144,0.049,0.24,0.049,0.36
			c0,0.408-0.264,0.672-0.672,0.792c-0.146,0.048-0.267,0.072-0.385,0.072c-0.386,0-0.722-0.192-0.843-0.6
			c-0.455-1.536-1.223-3.504-1.92-4.873c-0.069-0.12-0.096-0.216-0.096-0.336c0-0.36,0.264-0.672,0.625-0.792
			C395.476,35.748,395.644,35.724,395.789,35.724z M409.925,36.18c0,0.048,0,0.12,0,0.168c-0.312,3.192-1.344,6.409-3,8.617
			c-1.873,2.472-4.85,4.417-8.063,5.088c-0.097,0.024-0.191,0.024-0.267,0.024c-0.432,0-0.742-0.24-0.86-0.648
			c-0.025-0.12-0.052-0.24-0.052-0.36c0-0.384,0.24-0.696,0.675-0.792c2.688-0.648,5.446-2.256,7.057-4.489
			c1.438-1.992,2.281-4.872,2.592-7.776c0.025-0.528,0.48-0.744,0.89-0.744c0.022,0,0.071,0,0.118,0
			C409.613,35.364,409.925,35.652,409.925,36.18z M400.828,34.764c0.336,0,0.625,0.168,0.815,0.528
			c0.744,1.416,1.439,3.264,1.871,4.896c0.025,0.072,0.025,0.168,0.025,0.24c0,0.36-0.217,0.672-0.648,0.816
			c-0.145,0.024-0.264,0.048-0.407,0.048c-0.386,0-0.744-0.192-0.816-0.552c-0.406-1.536-1.15-3.457-1.799-4.752
			c-0.072-0.12-0.096-0.24-0.096-0.36c0-0.336,0.264-0.624,0.622-0.768C400.541,34.788,400.685,34.764,400.828,34.764z"/>
		<path fill="#FFFFFF" stroke="#FFFFFF" stroke-width="0.25" stroke-miterlimit="10" d="M424.037,34.691
			c-1.394,2.16-3.312,4.152-5.426,5.544c-0.216,0.12-0.406,0.192-0.623,0.192c-0.312,0-0.603-0.168-0.816-0.432
			c-0.119-0.168-0.19-0.384-0.19-0.624c0-0.312,0.145-0.672,0.504-0.888c2.377-1.536,4.774-4.176,6.385-8.185
			c0.168-0.432,0.457-0.696,0.938-0.696c0.119,0,0.265,0.024,0.433,0.072c0.504,0.12,0.744,0.48,0.744,0.864
			c0,0.096-0.023,0.216-0.05,0.312c-0.145,0.504-0.479,1.176-0.936,1.968l7.512-0.144c1.537-0.024,2.496,0.84,2.496,2.4
			c0,0.288-0.021,0.576-0.096,0.912c-1.439,6.792-6.217,12.289-14.4,14.257c-0.096,0.024-0.19,0.024-0.289,0.024
			c-0.479,0-0.84-0.24-0.981-0.696c-0.023-0.12-0.049-0.24-0.049-0.36c0-0.432,0.266-0.792,0.793-0.912
			c7.008-1.848,11.305-6.121,12.743-12.625c0.023-0.168,0.05-0.288,0.05-0.432c0-0.456-0.24-0.672-0.912-0.672
			c-0.023,0-0.049,0-0.099,0L424.037,34.691z"/>
	</g>
	<g>
		<path fill="#FFFFFF" d="M188.601,35.374c0.41-0.075,0.812-0.156,1.199-0.254c0.109,0.001-0.025,0.177-0.072,0.254
			c-0.78,1.282-1.775,2.669-2.58,3.96c-1.453-0.863-3.048-1.823-4.395-2.725c0.414-0.093,0.824-0.193,1.271-0.254
			c-0.048-0.368-0.247-0.694-0.4-1.017c-1.078-2.276-2.668-4.122-4.795-5.413c-2.338-1.419-5.932-2.375-9.518-1.49
			c-3.005,0.741-5.318,2.438-7.012,4.686c-1.607,2.137-2.888,5.27-2.396,9.046c0.439,3.394,1.951,5.815,3.995,7.701
			c1.927,1.778,4.762,3.233,8.429,3.233c3.596,0,6.412-1.451,8.391-3.27c2.061-1.895,3.484-4.262,3.996-7.665
			c1.51,0.198,3.053,0.363,4.541,0.581c-0.518,3.671-1.863,6.383-3.777,8.719c-1.873,2.284-4.35,4.119-7.303,5.195
			c-1.572,0.573-3.383,0.943-5.23,1.017c-1.954,0.078-3.803-0.215-5.521-0.727c-3.133-0.932-5.67-2.615-7.666-4.795
			c-1.997-2.182-3.561-4.825-4.213-8.283c-0.737-3.891-0.072-7.752,1.271-10.535c2.002-4.147,5.334-7.318,9.882-8.864
			c1.202-0.409,2.33-0.719,3.814-0.872c5.164-0.529,9.35,1.304,12.17,3.487C185.399,29.198,187.384,31.87,188.601,35.374z"/>
		<path fill="#FFFFFF" d="M176.25,31.451c2.204,1.355,4.415,2.705,6.647,4.032c-1.083,0.951-2.246,1.823-3.342,2.761
			c1.527,0.676,3.047,1.36,4.613,1.998c-1.865,1.099-3.807,2.176-5.775,3.306c-0.254,0.146-0.66,0.424-0.836,0.436
			c-0.147,0.009-0.421-0.132-0.654-0.218c-1.291-0.474-2.396-0.904-3.705-1.38c-0.221-0.081-0.488-0.217-0.617-0.218
			c-0.162-0.001-0.418,0.155-0.654,0.254c-1.47,0.617-2.881,1.22-4.322,1.853c-1.912-1.064-3.736-2.251-5.631-3.378
			c-0.256-0.152-0.558-0.274-0.764-0.509c1.523-0.596,2.954-1.284,4.469-1.889c-0.008-0.183-0.209-0.295-0.327-0.4
			c-0.948-0.84-2.003-1.762-2.979-2.616c2.273-1.384,4.637-2.678,6.939-4.032c0.861,0.708,1.979,1.711,2.941,2.543
			c0.121,0.104,0.383,0.362,0.4,0.363c0.113,0.007,0.801-0.638,0.908-0.727C174.452,32.9,175.353,32.131,176.25,31.451z
			 M172.726,34.938c-2.029,1.118-4.041,2.255-6.102,3.342c0.176,0.225,0.453,0.33,0.689,0.472c1.72,1.041,3.42,2.083,5.158,3.088
			c2.006-1.155,4.029-2.292,5.994-3.487C176.535,37.232,174.665,36.051,172.726,34.938z"/>
		<path fill="#FFFFFF" d="M172.944,42.967c1.527,0.591,3.059,1.178,4.577,1.78c0.624-0.26,1.192-0.769,1.743-0.981
			c0,1.066,0,2.131,0,3.197c-2.135,1.159-4.203,2.384-6.357,3.524C172.984,48.044,172.925,45.467,172.944,42.967z"/>
		<path fill="#FFFFFF" d="M172.218,43.039c0.084,2.41,0.012,4.977,0.035,7.447c-2.156-1.257-4.262-2.566-6.393-3.851
			c0-0.908,0-1.816,0-2.725c0.619,0.337,1.186,0.728,1.779,1.09C169.163,44.344,170.688,43.69,172.218,43.039z"/>
	</g>
</g>
</svg>
