<?xml version="1.0" encoding="utf-8"?>
<!-- Generator: Adobe Illustrator 15.0.2, SVG Export Plug-In . SVG Version: 6.00 Build 0)  -->
<!DOCTYPE svg PUBLIC "-//W3C//DTD SVG 1.1//EN" "http://www.w3.org/Graphics/SVG/1.1/DTD/svg11.dtd">
<svg version="1.1" id="レイヤー_4" xmlns="http://www.w3.org/2000/svg" xmlns:xlink="http://www.w3.org/1999/xlink" x="0px"
	 y="0px" width="186.805px" height="35.983px" viewBox="202.194 20.003 186.805 35.983"
	 enable-background="new 202.194 20.003 186.805 35.983" xml:space="preserve">
<g>
	<g>
		<g>
			<path fill="#FFFFFF" stroke="#FFFFFF" stroke-width="0.25" stroke-miterlimit="10" d="M251.158,37.937
				c-0.048,1.152-0.168,2.352-0.36,3.553c0.672,1.271,1.488,2.304,2.28,3.191c0.192,0.217,0.288,0.457,0.288,0.696
				c0,0.192-0.072,0.408-0.216,0.576c-0.168,0.216-0.384,0.312-0.601,0.312c-0.168,0-0.336-0.072-0.456-0.215
				c-0.647-0.793-1.224-1.633-1.728-2.521c-0.576,2.185-1.464,4.249-2.784,5.713c-0.168,0.217-0.433,0.336-0.696,0.336
				c-0.168,0-0.384-0.072-0.576-0.215c-0.216-0.17-0.336-0.434-0.336-0.673c0-0.192,0.072-0.408,0.216-0.576
				c2.257-2.64,3.24-6.505,3.385-10.705c0.096-2.856,0.096-5.736,0.096-9.001c0-0.432,0.336-0.672,0.84-0.672
				c0.504,0,0.792,0.24,0.792,0.672c0,2.112,0,4.104-0.048,6.097c0.504-0.888,0.912-1.776,1.152-2.496
				c0.12-0.265,0.312-0.408,0.552-0.408c0.12,0,0.216,0.024,0.312,0.072c0.288,0.12,0.456,0.336,0.456,0.624
				c0,0.096-0.024,0.191-0.072,0.312c-0.408,1.176-1.248,2.52-2.448,4.008C251.206,37.048,251.182,37.48,251.158,37.937z
				 M248.565,33.088c-0.048,2.017-0.239,3.937-0.672,5.736c-0.096,0.384-0.408,0.576-0.744,0.576c-0.096,0-0.191-0.024-0.264-0.048
				c-0.336-0.096-0.552-0.312-0.552-0.648c0-0.072,0.023-0.168,0.048-0.264c0.456-1.633,0.647-3.432,0.672-5.377
				c0-0.408,0.312-0.647,0.744-0.647C248.278,32.416,248.565,32.632,248.565,33.088z M256.175,44.345
				c0,0.096-0.024,0.168-0.048,0.264c-0.48,1.584-1.32,3.505-2.28,4.85c-0.168,0.24-0.456,0.383-0.721,0.383
				c-0.168,0-0.336-0.047-0.504-0.143c-0.288-0.217-0.456-0.48-0.456-0.744c0-0.145,0.048-0.289,0.12-0.408
				c0.864-1.201,1.776-3.001,2.208-4.417c0.12-0.36,0.36-0.552,0.696-0.552c0.12,0,0.24,0.023,0.36,0.072
				C255.935,43.769,256.175,44.032,256.175,44.345z M260.255,34.601c-1.032,3.119-3.072,6.264-5.736,8.28
				c-0.145,0.12-0.336,0.192-0.504,0.192c-0.24,0-0.456-0.121-0.648-0.336c-0.12-0.192-0.192-0.385-0.192-0.553
				c0-0.216,0.097-0.432,0.288-0.576c1.129-0.84,2.089-1.824,2.881-2.855c-0.504-0.528-1.032-1.009-1.608-1.44
				c-0.144-0.097-0.192-0.24-0.192-0.408c0-0.168,0.049-0.336,0.145-0.479c0.168-0.265,0.408-0.361,0.624-0.361
				c0.096,0,0.216,0.025,0.288,0.097c0.576,0.408,1.08,0.888,1.584,1.368c0.336-0.553,0.648-1.104,0.937-1.68
				c-0.553-0.504-1.104-0.961-1.681-1.345c-0.168-0.096-0.24-0.264-0.24-0.456c0-0.145,0.048-0.312,0.145-0.48
				c0.12-0.215,0.359-0.336,0.576-0.336c0.096,0,0.191,0.024,0.288,0.072c0.504,0.336,1.031,0.696,1.487,1.104
				c0.288-0.769,0.48-1.513,0.601-2.232c0.023-0.096,0.023-0.192,0.023-0.265c0-0.312-0.168-0.432-0.624-0.432h-1.968
				c-0.648,1.776-1.584,3.504-2.736,4.992c-0.216,0.289-0.479,0.408-0.72,0.408c-0.168,0-0.36-0.072-0.528-0.216
				c-0.168-0.168-0.288-0.36-0.288-0.575c0-0.217,0.096-0.433,0.312-0.697c1.632-1.943,2.616-4.512,3.144-6.936
				c0.097-0.433,0.408-0.625,0.769-0.625c0.072,0,0.12,0,0.191,0.024c0.408,0.048,0.696,0.24,0.696,0.647
				c0,0.072,0,0.145-0.023,0.24c-0.097,0.408-0.192,0.84-0.336,1.272h2.111c1.032,0,1.585,0.528,1.585,1.464
				c0,0.096,0,0.217-0.024,0.336c-0.048,0.408-0.12,0.816-0.216,1.225h2.184c0.145-1.297,0.192-2.76,0.192-4.393
				c0-0.432,0.24-0.695,0.792-0.695c0.552,0,0.864,0.264,0.864,0.695c0,1.608-0.072,3.072-0.216,4.393h3.672
				c0.433,0,0.648,0.288,0.648,0.768c0,0.504-0.216,0.793-0.648,0.793h-3.672c0.792,2.855,2.472,5.16,4.272,6.672
				c0.191,0.145,0.288,0.385,0.288,0.624c0,0.216-0.072,0.433-0.24,0.624c-0.24,0.24-0.48,0.36-0.721,0.36
				c-0.216,0-0.407-0.097-0.575-0.265c-1.704-1.607-2.977-3.527-3.745-5.904c-0.048,0.145-0.096,0.264-0.144,0.408
				c-0.744,2.185-1.872,4.033-3.96,5.664c-0.169,0.121-0.36,0.193-0.553,0.193c-0.24,0-0.479-0.097-0.624-0.312
				c-0.144-0.192-0.216-0.385-0.216-0.553c0-0.24,0.12-0.455,0.36-0.647c1.512-1.152,2.712-2.688,3.408-4.585
				c0.264-0.647,0.456-1.416,0.6-2.279L260.255,34.601L260.255,34.601z M258.455,43.864c0.384,0,0.576,0.193,0.72,0.648
				c0.384,1.297,0.672,3.024,0.792,4.272c0,0.048,0,0.097,0,0.12c0,0.48-0.288,0.793-0.792,0.84
				c-0.072,0.023-0.12,0.023-0.192,0.023c-0.407,0-0.768-0.215-0.792-0.695c-0.071-1.32-0.312-2.904-0.6-4.032
				c-0.024-0.144-0.048-0.288-0.048-0.408c0-0.384,0.168-0.601,0.576-0.72C258.263,43.889,258.358,43.864,258.455,43.864z
				 M262.175,43.625c0.312,0,0.528,0.216,0.672,0.552c0.553,1.2,1.152,3.24,1.393,4.465c0.024,0.096,0.024,0.191,0.024,0.264
				c0,0.408-0.192,0.672-0.648,0.768c-0.12,0.025-0.24,0.049-0.336,0.049c-0.433,0-0.744-0.24-0.792-0.648
				c-0.192-1.176-0.744-3.192-1.2-4.32c-0.048-0.12-0.072-0.216-0.072-0.336c0-0.288,0.168-0.553,0.576-0.721
				C261.935,43.649,262.055,43.625,262.175,43.625z M264.959,44.153c0-0.312,0.168-0.553,0.456-0.696
				c0.145-0.072,0.312-0.12,0.433-0.12c0.288,0,0.527,0.168,0.744,0.48c0.912,1.367,1.896,3.336,2.376,4.729
				c0.048,0.144,0.072,0.264,0.072,0.383c0,0.336-0.192,0.602-0.505,0.697c-0.168,0.072-0.336,0.096-0.479,0.096
				c-0.36,0-0.624-0.191-0.792-0.6c-0.48-1.32-1.345-3.266-2.112-4.417C265.031,44.513,264.959,44.321,264.959,44.153z
				 M266.184,28.575c0.191,0,0.359,0.096,0.504,0.264c0.648,0.744,1.296,1.585,1.776,2.425c0.071,0.12,0.096,0.24,0.096,0.336
				c0,0.216-0.12,0.433-0.384,0.601c-0.145,0.096-0.312,0.144-0.48,0.144c-0.216,0-0.432-0.096-0.552-0.312
				c-0.408-0.744-0.96-1.584-1.561-2.328c-0.12-0.121-0.168-0.265-0.168-0.408c0-0.192,0.097-0.408,0.288-0.553
				C265.871,28.624,266.016,28.575,266.184,28.575z"/>
			<path fill="#FFFFFF" stroke="#FFFFFF" stroke-width="0.25" stroke-miterlimit="10" d="M280.415,41.489
				c0.937-0.576,1.8-0.744,2.473-0.744c1.512,0,2.231,0.791,2.376,3.096c0.144,2.448,0.576,2.904,2.232,2.904
				c1.248,0,2.544-0.408,3.6-0.912c0.168-0.072,0.336-0.12,0.504-0.12c0.36,0,0.673,0.192,0.841,0.576
				c0.071,0.168,0.096,0.312,0.096,0.456c0,0.408-0.192,0.768-0.648,0.984c-1.2,0.576-3.024,0.936-4.536,0.936
				c-2.952,0-3.816-0.984-3.984-4.225c-0.096-1.8-0.552-2.16-1.368-2.16c-1.152,0-2.832,0.744-4.608,2.4
				c-1.128,1.057-2.424,2.328-3.576,3.408c-0.288,0.264-0.576,0.385-0.864,0.385c-0.264,0-0.528-0.096-0.72-0.312
				c-0.192-0.191-0.312-0.456-0.312-0.72c0-0.312,0.12-0.624,0.408-0.888c1.752-1.633,4.248-3.938,6.745-6.217
				c1.992-1.776,4.008-3.601,5.4-4.753c-2.784,0.456-7.177,0.816-10.081,0.888c-0.576-0.023-0.937-0.432-0.96-0.983
				c0-0.024,0-0.024,0-0.048c0-0.528,0.336-0.984,0.815-0.984c3.049-0.048,7.897-0.359,11.377-0.721c0.072,0,0.168,0,0.24,0
				c0.601,0,0.96,0.168,1.2,0.576c0.12,0.217,0.168,0.433,0.168,0.625c0,0.359-0.168,0.695-0.504,1.008
				c-1.44,1.344-3.048,2.712-4.464,3.912c-0.696,0.576-1.32,1.032-1.969,1.465L280.415,41.489z M286.439,29.751
				c0.672,0.049,0.96,0.433,0.96,0.938c0,0.047,0,0.071,0,0.119c-0.048,0.576-0.408,0.889-1.032,0.889c-0.023,0-0.048,0-0.071,0
				c-2.929-0.145-7.153-0.721-9.793-1.32c-0.408-0.096-0.648-0.408-0.648-0.816c0-0.12,0.024-0.24,0.072-0.384
				c0.144-0.433,0.456-0.696,0.888-0.696c0.072,0,0.168,0,0.265,0.023C279.623,29.079,283.583,29.607,286.439,29.751z"/>
			<path fill="#FFFFFF" stroke="#FFFFFF" stroke-width="0.25" stroke-miterlimit="10" d="M297.406,44.897
				c-0.24,0.408-0.552,0.623-0.888,0.623c-0.216,0-0.433-0.071-0.672-0.215c-0.312-0.193-0.456-0.48-0.456-0.793
				c0-0.216,0.071-0.48,0.216-0.72c1.656-2.808,3.265-6.241,4.25-9.481c-0.89,0.049-1.826,0.072-2.761,0.072
				c-0.288,0-0.601,0-0.912,0c-0.553,0-0.841-0.359-0.841-0.936c0-0.577,0.337-0.937,0.889-0.937c0.336,0,0.672,0,1.032,0
				c1.032,0,2.112-0.024,3.144-0.071c0.338-1.177,0.625-2.377,0.865-3.602c0.047-0.527,0.405-0.791,0.889-0.791
				c0.07,0,0.143,0,0.238,0.023c0.526,0.096,0.842,0.36,0.842,0.84c0,0.097,0,0.192-0.025,0.312
				c-0.215,0.984-0.455,2.016-0.719,3.049c1.176-0.097,2.303-0.192,3.311-0.336c0.072-0.025,0.146-0.025,0.218-0.025
				c0.479,0,0.768,0.289,0.862,0.793c0,0.048,0,0.096,0,0.145c0,0.455-0.286,0.815-0.862,0.912
				c-1.248,0.191-2.664,0.312-4.104,0.432C300.767,37.96,299.207,41.753,297.406,44.897z M315.576,45.449
				c0.24,0.239,0.358,0.528,0.358,0.792c0,0.24-0.096,0.48-0.264,0.672c-0.217,0.217-0.457,0.336-0.697,0.336
				c-0.237,0-0.504-0.119-0.719-0.312c-0.938-0.936-2.113-1.92-3.121-2.496c0.049,0.289,0.049,0.601,0.049,0.816
				c-0.118,2.616-1.801,3.84-5.063,3.84c-3,0-4.992-1.584-4.992-3.84c0-2.305,2.041-3.96,5.019-3.96
				c1.008,0,1.991,0.144,2.977,0.407c-0.146-1.344-0.264-3.24-0.264-4.8c0-0.696,0.405-0.983,0.936-0.983
				c0.576,0,0.984,0.312,0.984,0.983c0,2.063,0.096,3.744,0.287,5.448C312.671,43.12,314.376,44.249,315.576,45.449z
				 M306.191,43.001c-1.943,0-3.168,0.912-3.168,2.232c0,1.32,1.176,2.064,3.145,2.064c2.039,0,3.146-0.769,3.146-2.473
				c0-0.385,0-0.721-0.05-1.2C308.304,43.192,307.224,43.001,306.191,43.001z M315.24,34.192c0.336,0.216,0.479,0.576,0.479,0.888
				c0,0.192-0.047,0.384-0.143,0.552c-0.193,0.289-0.504,0.457-0.816,0.457c-0.217,0-0.408-0.072-0.6-0.193
				c-1.416-0.983-3.217-1.92-5.019-2.64c-0.312-0.12-0.457-0.407-0.457-0.72c0-0.192,0.05-0.385,0.146-0.553
				c0.217-0.336,0.529-0.504,0.889-0.504c0.146,0,0.289,0.024,0.435,0.072C311.976,32.248,313.896,33.28,315.24,34.192z"/>
			<path fill="#FFFFFF" stroke="#FFFFFF" stroke-width="0.25" stroke-miterlimit="10" d="M321.382,30.28
				c0.771,0,0.961,0.408,0.961,1.008c0,1.008,0,2.064,0,3.072c0,1.535,0.023,2.977,0.097,4.08c0.239,2.881,0.647,4.729,1.366,6.168
				c0.312,0.625,0.938,1.08,1.465,1.08c0.554,0,1.011-0.191,1.367-0.744c0.504-0.744,0.938-1.992,1.179-3.647
				c0.096-0.601,0.358-0.864,0.862-0.864c0.072,0,0.168,0,0.24,0.023c0.551,0.072,0.912,0.36,0.912,0.937
				c0,0.072,0,0.144-0.023,0.216c-0.338,2.232-0.961,3.865-1.754,4.896c-0.813,1.008-1.752,1.416-2.664,1.416
				c-1.008,0-2.088-0.455-2.901-1.68c-1.033-1.561-1.777-4.176-2.019-7.656c-0.145-1.921-0.168-4.729-0.168-7.297
				C320.302,30.663,320.71,30.28,321.382,30.28z M334.632,31.504c0.312,0,0.601,0.144,0.814,0.479
				c2.305,3.121,4.01,7.969,4.346,12.074c0,0.071,0,0.119,0,0.168c0,0.623-0.24,1.031-0.84,1.151
				c-0.098,0.024-0.193,0.024-0.267,0.024c-0.553,0-0.936-0.336-0.981-0.937c-0.336-4.032-1.801-8.353-3.961-11.401
				c-0.121-0.191-0.191-0.408-0.191-0.6c0-0.336,0.191-0.648,0.504-0.792C334.248,31.552,334.439,31.504,334.632,31.504z"/>
			<path fill="#FFFFFF" stroke="#FFFFFF" stroke-width="0.25" stroke-miterlimit="10" d="M346.966,38.824
				c0.24-0.216,0.527-0.336,0.816-0.336c0.24,0,0.455,0.072,0.646,0.24c0.24,0.192,0.336,0.407,0.336,0.647
				c0,0.217-0.096,0.457-0.311,0.648c-1.08,1.008-1.73,2.041-1.73,3.024c0,1.151,0.648,1.849,1.945,2.28
				c1.152,0.384,2.688,0.576,4.752,0.576c2.881,0,5.4-0.36,7.201-0.768c0.143-0.025,0.287-0.049,0.408-0.049
				c0.504,0,0.84,0.264,0.936,0.768c0.023,0.121,0.047,0.24,0.047,0.336c0,0.529-0.356,0.889-0.959,1.057
				c-1.873,0.504-4.487,0.744-7.586,0.744c-2.543,0-4.584-0.312-6.022-0.863c-1.775-0.744-2.736-1.969-2.736-3.793
				C344.71,41.872,345.359,40.265,346.966,38.824z M356.736,32.176c-1.394,0.144-3.072,0.24-4.584,0.24
				c-1.945,0-3.914-0.048-5.354-0.192c-0.529-0.072-0.815-0.432-0.815-0.936c0-0.049,0-0.096,0-0.168
				c0.071-0.553,0.407-0.84,0.961-0.84c0.047,0,0.096,0,0.118,0c1.513,0.119,3.648,0.191,5.904,0.191
				c2.377,0,4.584-0.096,6.072-0.191c0.022,0,0.072,0,0.119,0c0.506,0,0.938,0.312,1.057,0.744c0.023,0.144,0.049,0.287,0.049,0.432
				c0,0.408-0.19,0.72-0.647,0.96c-1.775,0.912-3.769,2.088-5.593,3.072c-0.266,0.144-0.526,0.216-0.743,0.216
				c-0.267,0-0.504-0.12-0.673-0.336c-0.118-0.145-0.168-0.312-0.168-0.504c0-0.288,0.146-0.576,0.455-0.744
				c1.058-0.553,2.4-1.176,3.89-1.824L356.736,32.176z M359.015,34.72c0.218,0,0.435,0.072,0.625,0.264
				c0.695,0.744,1.367,1.633,1.896,2.377c0.096,0.168,0.143,0.359,0.143,0.527c0,0.265-0.119,0.505-0.311,0.648
				c-0.168,0.12-0.385,0.192-0.603,0.192c-0.264,0-0.504-0.097-0.646-0.336c-0.506-0.769-1.178-1.632-1.801-2.353
				c-0.121-0.145-0.168-0.312-0.168-0.48c0-0.264,0.119-0.504,0.336-0.672C358.632,34.769,358.824,34.72,359.015,34.72z
				 M361.464,33.28c0.24,0,0.48,0.096,0.672,0.287c0.648,0.673,1.32,1.561,1.775,2.281c0.145,0.215,0.217,0.408,0.217,0.6
				c0,0.24-0.121,0.456-0.336,0.6c-0.168,0.097-0.361,0.168-0.553,0.168c-0.24,0-0.504-0.119-0.695-0.408
				c-0.504-0.744-1.129-1.584-1.682-2.207c-0.146-0.145-0.215-0.336-0.215-0.504c0-0.265,0.145-0.529,0.358-0.673
				C361.152,33.328,361.296,33.28,361.464,33.28z"/>
			<path fill="#FFFFFF" stroke="#FFFFFF" stroke-width="0.25" stroke-miterlimit="10" d="M376.535,31.815
				c0.022-0.096,0.022-0.168,0.022-0.24c0-0.336-0.19-0.479-0.573-0.479c-0.025,0-0.052,0-0.072,0
				c-1.73,0.072-3.865,0.168-5.713,0.168c-0.527,0-0.938-0.312-0.961-0.84c0-0.024,0-0.024,0-0.048c0-0.6,0.385-0.937,0.889-0.961
				c2.111-0.023,4.394-0.071,6.457-0.119c0.072,0,0.146,0,0.191,0c0.625,0,1.129,0.216,1.487,0.6
				c0.265,0.288,0.406,0.648,0.406,1.176c0,0.265-0.047,0.576-0.119,0.912c-0.312,1.393-0.793,3.121-1.317,4.873
				c1.895,0.216,4.055,0.96,5.928,1.872c0.168-1.464,0.24-3.169,0.24-5.137c0-0.624,0.405-0.96,0.936-0.96
				c0.576,0,1.008,0.312,1.008,0.912c0,0.191,0,0.385,0,0.576c0,2.112-0.119,4.008-0.358,5.568c1.271,0.768,2.399,1.608,3.434,2.592
				c0.312,0.265,0.455,0.625,0.455,0.937c0,0.265-0.072,0.504-0.24,0.672c-0.188,0.265-0.455,0.384-0.719,0.384
				s-0.504-0.096-0.721-0.312c-0.816-0.815-1.683-1.536-2.713-2.208c-0.89,3.48-2.832,5.76-6.023,7.08
				c-0.191,0.072-0.361,0.121-0.529,0.121c-0.356,0-0.646-0.169-0.791-0.505c-0.069-0.144-0.096-0.288-0.096-0.433
				c0-0.407,0.24-0.744,0.6-0.912c2.763-1.127,4.416-3.096,5.16-6.384c-1.752-1.056-4.08-1.849-6.145-2.112
				c-0.695,2.016-1.488,3.961-2.279,5.424c-1.225,2.305-2.449,3.025-3.865,3.025c-1.534,0-3.118-1.369-3.118-4.08
				c0-3.721,2.881-6.266,7.942-6.266C375.863,34.983,376.271,33.328,376.535,31.815z M369.263,42.833
				c0,1.512,0.646,2.184,1.367,2.184c0.695,0,1.394-0.479,2.281-2.184c0.646-1.248,1.295-2.76,1.824-4.345
				C371.255,38.488,369.263,40.337,369.263,42.833z"/>
		</g>
	</g>
	<g>
		<path fill="#FFFFFF" d="M202.194,24.08c2.462,2.451,5.022,4.959,7.393,7.428c-0.634,1.932-0.381,4.51,0.333,6.104
			c0.104,0.232,0.236,0.441,0.267,0.666c-1.317,0.277-2.002-0.609-2.301-1.568c-0.108,0.125-0.083,0.32-0.1,0.469
			c-0.122,1.104-0.148,2.531,0,3.701c0.659,5.184,3.962,8.014,8.471,9.369c1.171,0.354,2.524,0.695,3.835,0.635
			c2.725-0.127,4.667-1.205,6.37-2.535c2.6,2.49,7.67,7.637,7.67,7.637l2.854-2.67c0,0-5.275-5.207-7.856-7.867
			c0.724-0.988,1.367-2.061,1.901-3.301c0.541-1.256,0.693-2.816,0.667-4.535c-0.05-3.258-1.32-5.809-2.668-7.738
			c0.407,1.771-0.578,2.904-1.8,3.369c-0.876-0.371-1.511-1.033-1.634-2.102c-0.166-1.43,0.646-2.586,0.733-4.002
			c0.135-2.162-0.776-3.689-1.834-4.768c-0.973-0.994-2-1.766-3.335-2.369c0.739,3.588-1.76,5.578-4.102,6.637
			c-0.596,0.27-1.188,0.436-1.634,0.867c-0.712,0.689-1.149,1.734-1.401,2.801c-0.063,0.113-0.188-0.121-0.267-0.199
			c-0.656-0.656-1.458-1.41-2.1-2.102c-0.026-0.182,0.052-0.258,0.033-0.434c-0.056-0.043-0.153,0.156-0.2,0.234
			c-2.232-2.113-4.35-4.34-6.544-6.49 M222.426,30.941h0.066c-0.468,0.822-0.957,1.891-1.033,3.135
			c-0.112,1.803,0.398,3.502,1,4.668c-0.052,0.131-0.134-0.068-0.133-0.066c-1.686-1.516-3.284-3.391-4.969-4.936
			C218.681,32.441,220.402,31.539,222.426,30.941z M219.292,47.947c-0.968-0.061-1.997-0.404-2.801-0.799
			c-2.312-1.137-3.964-3.527-3.301-7.137c0.111,0.094,0.144,0.248,0.2,0.367c0.289,0.613,0.73,1.209,1.767,1.133
			c-0.263-1.225-0.34-3.162,0.066-4.402c3.071,3,6.115,6.023,9.104,9.104C223.123,47.266,221.504,48.086,219.292,47.947z
			 M226.228,42.512c-0.051,0.1-0.155-0.055-0.167-0.066c-0.876-0.801-1.79-1.84-2.634-2.701c0.979-0.766,1.418-2.072,1.567-3.668
			C226.195,37.412,226.72,40.098,226.228,42.512z"/>
		<path fill="#FFFFFF" d="M209.554,52.516c0,0.457,0,0.912,0,1.367c6.659,0,13.317,0,19.976,0c0-0.488,0-0.977,0-1.465
			c-6.647,0-13.294,0-19.942,0C209.548,52.422,209.551,52.469,209.554,52.516z"/>
	</g>
</g>
</svg>
