<?xml version="1.0" encoding="utf-8"?>
<!-- Generator: Adobe Illustrator 15.0.2, SVG Export Plug-In . SVG Version: 6.00 Build 0)  -->
<!DOCTYPE svg PUBLIC "-//W3C//DTD SVG 1.1//EN" "http://www.w3.org/Graphics/SVG/1.1/DTD/svg11.dtd">
<svg version="1.1" id="レイヤー_4" xmlns="http://www.w3.org/2000/svg" xmlns:xlink="http://www.w3.org/1999/xlink" x="0px"
	 y="0px" width="595.281px" height="841.89px" viewBox="0 0 595.281 841.89" enable-background="new 0 0 595.281 841.89"
	 xml:space="preserve">
<g>
	<g>
		<path fill="#FFFFFF" stroke="#FFFFFF" stroke-width="0.25" stroke-miterlimit="10" d="M246.74,39.06
			c-0.048,1.152-0.168,2.352-0.36,3.552c0.672,1.272,1.488,2.304,2.28,3.192c0.192,0.216,0.288,0.456,0.288,0.696
			c0,0.192-0.072,0.408-0.216,0.576c-0.168,0.216-0.384,0.312-0.6,0.312c-0.168,0-0.336-0.072-0.456-0.216
			c-0.648-0.792-1.224-1.632-1.728-2.52c-0.576,2.184-1.464,4.249-2.785,5.712c-0.168,0.216-0.432,0.336-0.696,0.336
			c-0.168,0-0.384-0.072-0.576-0.216c-0.216-0.168-0.336-0.432-0.336-0.672c0-0.192,0.072-0.408,0.216-0.576
			c2.256-2.64,3.241-6.504,3.384-10.705c0.096-2.856,0.096-5.736,0.096-9c0-0.432,0.336-0.672,0.84-0.672
			c0.504,0,0.792,0.24,0.792,0.672c0,2.112,0,4.104-0.048,6.096c0.504-0.888,0.912-1.776,1.152-2.496
			c0.12-0.264,0.312-0.408,0.552-0.408c0.12,0,0.216,0.024,0.312,0.072c0.288,0.12,0.456,0.336,0.456,0.624
			c0,0.096-0.024,0.192-0.072,0.312c-0.408,1.176-1.248,2.52-2.448,4.008C246.788,38.172,246.764,38.604,246.74,39.06z
			 M244.147,34.211c-0.048,2.016-0.24,3.937-0.672,5.736c-0.096,0.384-0.408,0.576-0.744,0.576c-0.096,0-0.192-0.024-0.264-0.048
			c-0.336-0.096-0.552-0.312-0.552-0.648c0-0.072,0.024-0.168,0.048-0.264c0.456-1.632,0.648-3.432,0.672-5.376
			c0-0.408,0.312-0.648,0.744-0.648C243.859,33.54,244.147,33.755,244.147,34.211z M251.756,45.468c0,0.096-0.024,0.168-0.048,0.264
			c-0.48,1.584-1.32,3.504-2.28,4.849c-0.168,0.24-0.456,0.384-0.72,0.384c-0.168,0-0.336-0.048-0.504-0.144
			c-0.288-0.216-0.456-0.48-0.456-0.744c0-0.144,0.048-0.288,0.12-0.408c0.864-1.2,1.776-3,2.208-4.417
			c0.12-0.36,0.36-0.552,0.696-0.552c0.12,0,0.24,0.024,0.36,0.072C251.516,44.893,251.756,45.156,251.756,45.468z M255.836,35.724
			c-1.032,3.12-3.072,6.265-5.736,8.281c-0.144,0.12-0.336,0.192-0.504,0.192c-0.24,0-0.456-0.12-0.648-0.336
			c-0.12-0.192-0.192-0.384-0.192-0.552c0-0.216,0.096-0.432,0.288-0.576c1.128-0.84,2.088-1.824,2.88-2.856
			c-0.504-0.528-1.032-1.008-1.608-1.44c-0.144-0.096-0.192-0.24-0.192-0.408s0.048-0.336,0.144-0.48
			c0.168-0.264,0.408-0.36,0.624-0.36c0.096,0,0.216,0.024,0.288,0.096c0.576,0.408,1.08,0.888,1.584,1.368
			c0.336-0.552,0.648-1.104,0.936-1.68c-0.552-0.504-1.104-0.96-1.68-1.344c-0.168-0.096-0.24-0.264-0.24-0.456
			c0-0.144,0.048-0.312,0.144-0.48c0.12-0.216,0.36-0.336,0.576-0.336c0.096,0,0.192,0.024,0.288,0.072
			c0.504,0.336,1.032,0.696,1.488,1.104c0.288-0.768,0.48-1.512,0.6-2.232c0.024-0.096,0.024-0.192,0.024-0.264
			c0-0.312-0.168-0.432-0.624-0.432h-1.968c-0.648,1.776-1.584,3.504-2.736,4.992c-0.216,0.288-0.48,0.408-0.72,0.408
			c-0.168,0-0.36-0.072-0.528-0.216c-0.168-0.168-0.288-0.36-0.288-0.576c0-0.216,0.096-0.432,0.312-0.696
			c1.632-1.944,2.616-4.512,3.145-6.937c0.096-0.432,0.408-0.624,0.768-0.624c0.072,0,0.12,0,0.192,0.024
			c0.408,0.048,0.696,0.24,0.696,0.648c0,0.072,0,0.144-0.024,0.24c-0.096,0.408-0.192,0.84-0.336,1.272h2.112
			c1.032,0,1.584,0.528,1.584,1.464c0,0.096,0,0.216-0.024,0.336c-0.048,0.408-0.12,0.816-0.216,1.224h2.184
			c0.144-1.296,0.192-2.76,0.192-4.393c0-0.432,0.24-0.696,0.792-0.696c0.552,0,0.864,0.264,0.864,0.696
			c0,1.608-0.072,3.072-0.216,4.393h3.672c0.432,0,0.648,0.288,0.648,0.768c0,0.504-0.216,0.792-0.648,0.792h-3.672
			c0.792,2.856,2.473,5.161,4.272,6.672c0.192,0.144,0.288,0.384,0.288,0.624c0,0.216-0.072,0.432-0.24,0.625
			c-0.24,0.24-0.48,0.36-0.72,0.36c-0.216,0-0.408-0.096-0.576-0.264c-1.704-1.608-2.976-3.528-3.744-5.904
			c-0.048,0.144-0.096,0.264-0.144,0.408c-0.744,2.185-1.872,4.033-3.96,5.665c-0.168,0.12-0.36,0.192-0.552,0.192
			c-0.24,0-0.48-0.096-0.625-0.312c-0.144-0.192-0.216-0.384-0.216-0.552c0-0.24,0.12-0.456,0.36-0.648
			c1.512-1.152,2.712-2.688,3.409-4.584c0.264-0.648,0.456-1.416,0.6-2.28h-2.377V35.724z M254.036,44.988
			c0.384,0,0.576,0.192,0.72,0.648c0.384,1.296,0.672,3.024,0.792,4.272c0,0.048,0,0.096,0,0.12c0,0.48-0.288,0.792-0.792,0.84
			c-0.072,0.024-0.12,0.024-0.192,0.024c-0.408,0-0.768-0.216-0.792-0.696c-0.072-1.32-0.312-2.904-0.6-4.032
			c-0.024-0.144-0.048-0.288-0.048-0.408c0-0.384,0.168-0.6,0.576-0.72C253.844,45.012,253.94,44.988,254.036,44.988z
			 M257.757,44.749c0.312,0,0.528,0.216,0.672,0.552c0.552,1.2,1.152,3.24,1.392,4.464c0.024,0.096,0.024,0.192,0.024,0.264
			c0,0.408-0.192,0.672-0.648,0.768c-0.12,0.024-0.24,0.048-0.336,0.048c-0.432,0-0.744-0.24-0.792-0.648
			c-0.192-1.176-0.744-3.192-1.2-4.32c-0.048-0.12-0.072-0.216-0.072-0.336c0-0.288,0.168-0.552,0.576-0.72
			C257.517,44.772,257.637,44.749,257.757,44.749z M260.541,45.276c0-0.312,0.168-0.552,0.456-0.696
			c0.144-0.072,0.312-0.12,0.432-0.12c0.288,0,0.528,0.168,0.744,0.48c0.912,1.368,1.896,3.336,2.376,4.729
			c0.048,0.144,0.072,0.264,0.072,0.384c0,0.336-0.192,0.6-0.504,0.696c-0.168,0.072-0.336,0.096-0.48,0.096
			c-0.36,0-0.624-0.192-0.792-0.6c-0.48-1.32-1.344-3.264-2.112-4.416C260.613,45.636,260.541,45.444,260.541,45.276z
			 M261.765,29.699c0.192,0,0.36,0.096,0.504,0.264c0.648,0.744,1.296,1.584,1.776,2.424c0.072,0.12,0.096,0.24,0.096,0.336
			c0,0.216-0.12,0.432-0.384,0.6c-0.144,0.096-0.312,0.144-0.48,0.144c-0.216,0-0.432-0.096-0.552-0.312
			c-0.408-0.744-0.96-1.584-1.56-2.328c-0.12-0.12-0.168-0.264-0.168-0.408c0-0.192,0.096-0.408,0.288-0.552
			C261.453,29.747,261.597,29.699,261.765,29.699z"/>
		<path fill="#FFFFFF" stroke="#FFFFFF" stroke-width="0.25" stroke-miterlimit="10" d="M278.036,30.275
			c-0.024-0.048-0.024-0.096-0.024-0.144c0-0.552,0.408-0.84,0.936-0.864c0.024,0,0.048,0,0.072,0c0.6,0,0.96,0.288,1.008,0.864
			l0.192,3c0.504-0.072,0.96-0.096,1.344-0.096c3.937,0,5.953,2.256,5.953,5.329c0,3.384-2.328,5.473-5.688,5.473
			c-1.56,0-2.952-0.288-4.128-0.912c-0.384-0.216-0.576-0.552-0.576-0.912c0-0.144,0.024-0.312,0.096-0.456
			c0.168-0.36,0.504-0.576,0.864-0.576c0.144,0,0.312,0.048,0.456,0.12c0.816,0.408,1.92,0.72,3.048,0.72
			c2.4,0,3.913-1.392,3.913-3.384c0-2.088-1.392-3.577-4.008-3.577c-1.344,0-3.433,0.384-5.497,0.984
			c-0.816,0.24-1.632,0.528-2.352,0.84c1.272,4.104,2.376,8.377,3.288,12.577c0.024,0.12,0.048,0.24,0.048,0.36
			c0,0.456-0.288,0.768-0.768,0.912c-0.12,0.024-0.216,0.024-0.312,0.024c-0.48,0-0.864-0.24-0.984-0.744
			c-0.888-4.201-1.872-8.449-3.12-12.457c-1.32,0.528-2.616,1.104-3.769,1.608c-0.168,0.072-0.312,0.096-0.48,0.096
			c-0.36,0-0.696-0.216-0.84-0.6c-0.072-0.144-0.096-0.288-0.096-0.432c0-0.384,0.216-0.744,0.624-0.936
			c1.224-0.552,2.568-1.08,3.96-1.584c-0.408-1.272-0.888-2.544-1.368-3.865c-0.024-0.096-0.048-0.216-0.048-0.312
			c0-0.408,0.312-0.72,0.744-0.864c0.168-0.048,0.312-0.072,0.432-0.072c0.408,0,0.744,0.216,0.888,0.672
			c0.456,1.248,0.888,2.52,1.272,3.792c0.792-0.288,1.536-0.528,2.256-0.744c0.984-0.288,1.992-0.552,2.904-0.72L278.036,30.275z"/>
		<path fill="#FFFFFF" stroke="#FFFFFF" stroke-width="0.25" stroke-miterlimit="10" d="M306.884,41.268
			c-0.336,1.8-1.223,2.808-2.928,2.808c-1.176,0-2.615-0.456-3.719-1.368c-0.217-0.192-0.336-0.456-0.336-0.744
			c0-0.192,0.07-0.408,0.191-0.576c0.191-0.24,0.48-0.384,0.768-0.384c0.217,0,0.432,0.072,0.625,0.24
			c0.6,0.48,1.512,0.888,2.279,0.888c0.721,0,1.08-0.36,1.271-1.344c0.168-0.912,0.24-2.304,0.264-3.84
			c-1.271,0.048-2.473,0.072-3.6,0.144c-1.537,0.096-3.072,0.168-4.633,0.288c0,0.864,0,1.728,0,2.64c0,4.32,0.12,5.329,0.48,5.929
			c0.6,1.104,1.944,1.416,4.993,1.416c2.328,0,4.68-0.24,6.312-0.576c0.119-0.024,0.24-0.024,0.336-0.024
			c0.504,0,0.84,0.288,0.912,0.792c0.023,0.072,0.023,0.144,0.023,0.216c0,0.576-0.336,0.936-0.887,1.032
			c-1.729,0.336-4.201,0.552-6.625,0.552c-3.793,0-5.81-0.624-6.673-2.136c-0.648-1.008-0.864-2.184-0.864-6.312
			c0-0.192,0-0.432,0-0.648c0-0.888,0.024-1.8,0.024-2.76c-1.224,0.072-2.52,0.192-3.792,0.288c-0.048,0-0.096,0-0.144,0
			c-0.504,0-0.816-0.384-0.84-0.864c0-0.024,0-0.048,0-0.072c0-0.504,0.312-0.864,0.816-0.888c1.296-0.096,2.616-0.192,3.96-0.312
			c0.024-1.488,0.024-3.145,0.024-4.465c0-0.576,0.432-0.888,0.984-0.888c0.624,0.024,1.008,0.336,1.008,0.888
			c0,1.417,0,2.88-0.024,4.345c1.464-0.096,2.976-0.192,4.537-0.264c1.033-0.048,2.305-0.12,3.672-0.168
			c0.025-0.504,0.025-1.008,0.025-1.512c0-0.984-0.025-1.944-0.025-2.856c0-0.552,0.408-0.864,0.961-0.864
			c0.551,0,1.008,0.312,1.008,0.84c0,0.696,0,1.392,0,2.112c0,0.72,0,1.44-0.023,2.232c1.295-0.048,2.736-0.072,4.08-0.096
			c0.672,0,0.936,0.336,0.936,0.888c0,0.6-0.264,0.96-0.912,0.96c-1.344,0-2.734,0.048-4.127,0.072
			C307.22,38.532,307.101,40.14,306.884,41.268z"/>
		<path fill="#FFFFFF" stroke="#FFFFFF" stroke-width="0.25" stroke-miterlimit="10" d="M322.292,39.108
			c1.871-0.84,3.623-1.248,5.328-1.248c4.32,0,6.961,2.28,6.961,5.544c0,4.032-3.672,6.577-9.529,6.577
			c-3.553,0-5.855-1.488-5.855-3.72c0-1.873,1.559-3.241,3.912-3.241c2.592,0,4.729,1.561,5.137,4.729
			c2.447-0.576,4.271-2.088,4.271-4.32c0-2.28-1.873-3.937-5.279-3.937c-3.193,0-6.098,1.056-10.033,3.504
			c-0.217,0.12-0.432,0.168-0.648,0.168c-0.336,0-0.672-0.144-0.863-0.456c-0.121-0.168-0.168-0.336-0.168-0.528
			c0-0.36,0.191-0.72,0.551-0.912c3.961-2.424,9.289-6.336,12.312-9.001c-2.615,0.216-6.289,0.36-9.359,0.384
			c-0.504,0-0.889-0.36-0.889-0.936c0-0.552,0.287-0.984,0.84-0.984c3.24,0,7.346-0.12,10.537-0.336c0.072,0,0.145,0,0.217,0
			c0.551,0,0.959,0.192,1.199,0.6c0.119,0.216,0.191,0.432,0.191,0.696c0,0.336-0.143,0.672-0.455,0.984
			c-2.064,1.92-4.32,3.648-6.264,4.944c-0.672,0.456-1.488,1.008-2.16,1.392L322.292,39.108z M323.011,44.652
			c-1.248,0-1.967,0.648-1.967,1.536c0,1.104,1.439,2.016,3.576,2.04c0.576,0,1.176,0,1.752-0.048
			C326.179,45.829,324.667,44.652,323.011,44.652z"/>
		<path fill="#FFFFFF" stroke="#FFFFFF" stroke-width="0.25" stroke-miterlimit="10" d="M342.548,39.948
			c0.24-0.216,0.527-0.336,0.816-0.336c0.24,0,0.455,0.072,0.646,0.24c0.24,0.192,0.336,0.408,0.336,0.648
			c0,0.216-0.096,0.456-0.311,0.648c-1.08,1.008-1.729,2.041-1.729,3.024c0,1.152,0.648,1.848,1.943,2.28
			c1.152,0.384,2.689,0.576,4.752,0.576c2.881,0,5.4-0.36,7.201-0.768c0.143-0.024,0.287-0.048,0.408-0.048
			c0.504,0,0.84,0.264,0.936,0.768c0.023,0.12,0.047,0.24,0.047,0.336c0,0.528-0.359,0.888-0.959,1.056
			c-1.873,0.504-4.488,0.744-7.584,0.744c-2.545,0-4.584-0.312-6.023-0.864c-1.777-0.744-2.736-1.968-2.736-3.792
			C340.292,42.996,340.939,41.388,342.548,39.948z M352.316,33.299c-1.393,0.144-3.072,0.24-4.584,0.24
			c-1.943,0-3.912-0.048-5.354-0.192c-0.527-0.072-0.814-0.432-0.814-0.936c0-0.048,0-0.096,0-0.168
			c0.07-0.552,0.406-0.84,0.959-0.84c0.049,0,0.096,0,0.119,0c1.514,0.12,3.648,0.192,5.906,0.192c2.375,0,4.584-0.096,6.072-0.192
			c0.023,0,0.072,0,0.119,0c0.504,0,0.936,0.312,1.057,0.744c0.023,0.144,0.047,0.288,0.047,0.432c0,0.408-0.191,0.72-0.646,0.96
			c-1.777,0.912-3.77,2.088-5.594,3.072c-0.264,0.144-0.527,0.216-0.744,0.216c-0.264,0-0.504-0.12-0.672-0.336
			c-0.119-0.144-0.168-0.312-0.168-0.504c0-0.288,0.145-0.576,0.455-0.744c1.057-0.552,2.4-1.176,3.889-1.824L352.316,33.299z
			 M354.597,35.844c0.217,0,0.432,0.072,0.623,0.264c0.697,0.744,1.369,1.632,1.896,2.376c0.096,0.168,0.145,0.36,0.145,0.528
			c0,0.264-0.121,0.504-0.312,0.648c-0.168,0.12-0.383,0.192-0.6,0.192c-0.264,0-0.504-0.096-0.648-0.336
			c-0.504-0.768-1.176-1.632-1.799-2.353c-0.121-0.144-0.168-0.312-0.168-0.48c0-0.264,0.119-0.504,0.336-0.672
			C354.212,35.892,354.406,35.844,354.597,35.844z M357.044,34.403c0.24,0,0.48,0.096,0.672,0.288c0.648,0.672,1.32,1.56,1.777,2.28
			c0.143,0.216,0.215,0.408,0.215,0.6c0,0.24-0.119,0.456-0.336,0.6c-0.168,0.096-0.359,0.168-0.551,0.168
			c-0.24,0-0.504-0.12-0.697-0.408c-0.504-0.744-1.127-1.584-1.68-2.208c-0.145-0.144-0.215-0.336-0.215-0.504
			c0-0.264,0.143-0.528,0.359-0.672C356.734,34.452,356.876,34.403,357.044,34.403z"/>
		<path fill="#FFFFFF" stroke="#FFFFFF" stroke-width="0.25" stroke-miterlimit="10" d="M372.117,32.939
			c0.023-0.096,0.023-0.168,0.023-0.24c0-0.336-0.191-0.48-0.576-0.48c-0.023,0-0.049,0-0.072,0
			c-1.729,0.072-3.863,0.168-5.711,0.168c-0.529,0-0.938-0.312-0.961-0.84c0-0.024,0-0.024,0-0.048c0-0.6,0.385-0.936,0.889-0.96
			c2.111-0.024,4.393-0.072,6.457-0.12c0.072,0,0.143,0,0.191,0c0.625,0,1.129,0.216,1.488,0.6c0.264,0.288,0.408,0.648,0.408,1.176
			c0,0.264-0.049,0.576-0.121,0.912c-0.311,1.392-0.791,3.12-1.318,4.873c1.895,0.216,4.057,0.96,5.928,1.872
			c0.168-1.464,0.24-3.168,0.24-5.137c0-0.624,0.408-0.96,0.938-0.96c0.576,0,1.008,0.312,1.008,0.912c0,0.192,0,0.384,0,0.576
			c0,2.112-0.121,4.008-0.359,5.568c1.271,0.768,2.398,1.608,3.432,2.592c0.311,0.264,0.455,0.624,0.455,0.936
			c0,0.264-0.072,0.504-0.24,0.672c-0.191,0.264-0.455,0.384-0.719,0.384s-0.504-0.096-0.721-0.312
			c-0.816-0.816-1.68-1.536-2.711-2.208c-0.889,3.48-2.832,5.76-6.025,7.081c-0.191,0.072-0.359,0.12-0.527,0.12
			c-0.359,0-0.648-0.168-0.793-0.504c-0.07-0.144-0.096-0.288-0.096-0.432c0-0.408,0.24-0.744,0.6-0.912
			c2.762-1.128,4.418-3.096,5.162-6.384c-1.752-1.056-4.082-1.848-6.145-2.112c-0.697,2.016-1.488,3.96-2.281,5.424
			c-1.223,2.304-2.447,3.024-3.863,3.024c-1.537,0-3.121-1.368-3.121-4.081c0-3.72,2.881-6.264,7.945-6.264
			C371.445,36.107,371.851,34.452,372.117,32.939z M364.843,43.957c0,1.512,0.648,2.184,1.367,2.184c0.697,0,1.393-0.48,2.281-2.184
			c0.646-1.249,1.295-2.76,1.824-4.345C366.835,39.612,364.843,41.46,364.843,43.957z"/>
	</g>
	<g>
		<g>
			<path fill="#FFFFFF" d="M231.917,36.547c-0.05-3.245-1.316-5.789-2.659-7.71c0.405,1.767-0.577,2.895-1.794,3.357
				c-0.874-0.371-1.505-1.03-1.628-2.095c-0.165-1.425,0.644-2.576,0.731-3.987c0.133-2.154-0.774-3.676-1.828-4.752
				c-0.97-0.988-1.992-1.758-3.323-2.359c0.736,3.574-1.753,5.558-4.087,6.612c-0.594,0.27-1.184,0.435-1.628,0.865
				c-0.728,0.705-1.342,1.935-1.439,2.953c-0.663,0.133-1.381-0.416-1.841-0.83c-0.594-0.536-0.78-0.799-0.848-1.644
				c-1.507,1.021-1.62,2.807-1.914,4.412c-0.31,1.683-0.146,3.606,0.558,5.177c0.104,0.232,0.235,0.44,0.266,0.665
				c-1.312,0.276-1.995-0.607-2.292-1.562c-0.108,0.122-0.083,0.316-0.1,0.464c-0.122,1.102-0.148,2.524,0,3.689
				c0.656,5.166,3.948,7.985,8.44,9.338c1.167,0.35,0.669,0.69,1.976,0.631c1.555-0.072,4.907-0.494,6.273-1.24
				c0.572-0.314,1.25-0.674,1.72-1.134c0.514-0.5,2.91-2.501,4.752-6.333C231.843,39.838,231.942,38.26,231.917,36.547z
				 M226.407,41.411c-0.547,2.057-1.756,4.093-3.778,4.941c-0.97,0.408-3.075,0.561-4.123,0.496
				c-3.041-0.189-4.822-2.463-5.132-5.565c-0.029-0.292,0.222-2.241,0.1-2.345c0.111,0.094,0.143,0.247,0.199,0.366
				c0.144,0.304,1.397,1.801,1.851,1.074c0.158-0.255-0.474-0.966-0.594-1.175c-0.294-0.513-0.39-1.082-0.374-1.679
				c0.021-0.753,0.17-1.513,0.452-2.211c0.133-0.329,0.881-1.225,0.776-1.563c0.255,0.822,0.206,1.947,1.288,2.112
				c-0.246-0.709,0.006-2.064,0.38-2.72c0.917-1.609,3.36-3.242,5.228-3.242h0.066c-0.466,0.819-0.954,1.884-1.03,3.124
				c-0.104,1.679,0.229,3.481,1.198,4.885c0.188,0.273,0.451,0.751,0.849,0.668c0.29-0.062,0.456-0.428,0.605-0.655
				c0.476-0.728,0.699-1.584,0.816-2.438c0.009-0.07,0.096-0.419,0.053-0.468c1.026,1.141,1.42,2.734,1.422,4.239
				C226.66,39.971,226.594,40.712,226.407,41.411z"/>
		</g>
		<path fill="#FFFFFF" d="M210.575,51.454c0,0.539,0,1.078,0,1.616c7.872,0,12.828,0,20.699,0c0-0.577,0-1.155,0-1.732
			c-7.858,0-12.841,0-20.699,0C210.528,51.343,210.571,51.398,210.575,51.454z"/>
	</g>
</g>
</svg>
