<?xml version="1.0" encoding="utf-8"?>
<!-- Generator: Adobe Illustrator 15.0.2, SVG Export Plug-In . SVG Version: 6.00 Build 0)  -->
<!DOCTYPE svg PUBLIC "-//W3C//DTD SVG 1.1//EN" "http://www.w3.org/Graphics/SVG/1.1/DTD/svg11.dtd">
<svg version="1.1" id="レイヤー_4" xmlns="http://www.w3.org/2000/svg" xmlns:xlink="http://www.w3.org/1999/xlink" x="0px"
	 y="0px" width="595.281px" height="841.89px" viewBox="0 0 595.281 841.89" enable-background="new 0 0 595.281 841.89"
	 xml:space="preserve">
<g>
	<g>
		<path fill="#FFFFFF" stroke="#FFFFFF" stroke-width="0.25" stroke-miterlimit="10" d="M253.752,33.003
			c2.904,3.433,6.553,7.249,9.817,10.393c0.264,0.265,0.408,0.576,0.408,0.912c0,0.265-0.097,0.529-0.312,0.816
			c-0.191,0.264-0.479,0.408-0.768,0.408s-0.576-0.145-0.816-0.408c-3.336-3.288-6.961-7.272-9.816-10.681
			c-1.129-1.32-1.297-1.44-1.729-1.44c-0.408,0-0.648,0.192-1.393,1.344c-1.344,2.137-3.072,4.633-4.512,6.434
			c-0.265,0.336-0.576,0.504-0.912,0.504c-0.265,0-0.552-0.12-0.816-0.336c-0.24-0.192-0.384-0.48-0.384-0.769
			c0-0.289,0.12-0.6,0.36-0.888c1.344-1.561,3.264-4.057,4.704-6.385c1.2-1.896,1.824-2.232,2.856-2.232
			C251.616,30.675,252,30.915,253.752,33.003z M262.801,31.755c0,1.465-1.176,2.641-2.64,2.641c-1.464,0-2.641-1.176-2.641-2.641
			c0-1.464,1.177-2.641,2.641-2.641C261.625,29.114,262.801,30.291,262.801,31.755z M258.673,31.755
			c0,0.816,0.672,1.488,1.488,1.488c0.815,0,1.488-0.672,1.488-1.488s-0.673-1.488-1.488-1.488
			C259.345,30.267,258.673,30.938,258.673,31.755z"/>
		<path fill="#FFFFFF" stroke="#FFFFFF" stroke-width="0.25" stroke-miterlimit="10" d="M270.647,33.507
			c0.336,0,0.624,0.168,0.792,0.504c0.744,1.416,1.513,3.408,1.992,4.969c0.024,0.145,0.049,0.24,0.049,0.36
			c0,0.408-0.265,0.672-0.673,0.792c-0.144,0.048-0.264,0.072-0.384,0.072c-0.384,0-0.72-0.192-0.84-0.6
			c-0.456-1.537-1.225-3.505-1.92-4.873c-0.072-0.12-0.097-0.216-0.097-0.336c0-0.36,0.265-0.672,0.624-0.792
			C270.336,33.531,270.504,33.507,270.647,33.507z M284.785,33.964c0,0.047,0,0.119,0,0.168c-0.312,3.191-1.345,6.408-3,8.616
			c-1.873,2.472-4.849,4.417-8.065,5.089c-0.096,0.023-0.191,0.023-0.264,0.023c-0.432,0-0.744-0.24-0.864-0.648
			c-0.023-0.119-0.048-0.239-0.048-0.359c0-0.385,0.24-0.696,0.672-0.792c2.688-0.648,5.448-2.257,7.057-4.489
			c1.44-1.991,2.28-4.871,2.593-7.775c0.023-0.529,0.479-0.744,0.888-0.744c0.024,0,0.072,0,0.12,0
			C284.473,33.147,284.785,33.436,284.785,33.964z M275.688,32.548c0.336,0,0.624,0.168,0.815,0.527
			c0.744,1.416,1.44,3.264,1.872,4.896c0.024,0.072,0.024,0.168,0.024,0.24c0,0.359-0.216,0.672-0.648,0.816
			c-0.144,0.023-0.264,0.047-0.407,0.047c-0.385,0-0.744-0.191-0.816-0.551c-0.408-1.537-1.152-3.457-1.8-4.753
			c-0.072-0.12-0.097-0.24-0.097-0.36c0-0.336,0.265-0.624,0.624-0.768C275.4,32.571,275.544,32.548,275.688,32.548z"/>
		<path fill="#FFFFFF" stroke="#FFFFFF" stroke-width="0.25" stroke-miterlimit="10" d="M297.768,47.068
			c0,0.647-0.455,0.912-1.056,0.912c-0.648,0-1.056-0.265-1.056-0.912V28.419c0-0.648,0.407-0.912,1.056-0.912
			c0.601,0,1.056,0.264,1.056,0.936v6.169c3.624,0.96,8.089,2.568,11.714,4.296c0.457,0.217,0.646,0.576,0.646,1.009
			c0,0.168-0.021,0.336-0.096,0.528c-0.145,0.408-0.527,0.695-0.959,0.695c-0.168,0-0.336-0.048-0.504-0.119
			c-3.17-1.609-7.297-3.265-10.803-4.273L297.768,47.068L297.768,47.068z"/>
		<path fill="#FFFFFF" stroke="#FFFFFF" stroke-width="0.25" stroke-miterlimit="10" d="M319.271,35.596
			c0.119,0,0.217,0.024,0.336,0.048c0.48,0.072,0.793,0.432,0.793,0.96c0,0.072,0,0.168-0.023,0.265
			c-0.672,3.264-1.969,6.456-3.576,8.736c-0.24,0.359-0.602,0.527-0.938,0.527c-0.215,0-0.408-0.047-0.576-0.168
			c-0.336-0.191-0.504-0.504-0.504-0.84c0-0.216,0.072-0.455,0.217-0.648c1.561-2.111,2.785-5.16,3.336-8.064
			C318.431,35.859,318.816,35.596,319.271,35.596z M326.064,47.38c0,0.625-0.504,0.912-1.08,0.912S324,48.005,324,47.38V33.147
			h-8.039c-0.506,0-0.842-0.408-0.842-0.961c0-0.527,0.336-0.983,0.842-0.983H324v-2.808c0-0.625,0.408-0.912,0.984-0.912
			s1.08,0.287,1.08,0.912v2.808h8.473c0.504,0,0.84,0.456,0.84,0.983c0,0.553-0.336,0.961-0.84,0.961h-8.473V47.38z M330.841,35.62
			c0.455,0,0.863,0.239,0.984,0.815c0.576,2.929,1.799,5.88,3.527,8.017c0.119,0.191,0.191,0.432,0.191,0.648
			c0,0.359-0.168,0.672-0.432,0.863c-0.217,0.121-0.434,0.192-0.648,0.192c-0.336,0-0.672-0.168-0.936-0.528
			c-1.633-2.184-3.098-5.52-3.744-8.76c-0.025-0.097-0.025-0.192-0.025-0.289c0-0.504,0.336-0.863,0.793-0.936
			C330.648,35.62,330.746,35.62,330.841,35.62z M331.753,26.307c0.24,0,0.48,0.097,0.672,0.36c0.623,0.84,1.08,1.656,1.514,2.544
			c0.07,0.12,0.096,0.265,0.096,0.408c0,0.288-0.146,0.528-0.434,0.696c-0.145,0.072-0.287,0.096-0.406,0.096
			c-0.289,0-0.555-0.145-0.674-0.408c-0.432-0.863-0.889-1.656-1.439-2.448c-0.119-0.144-0.168-0.312-0.168-0.479
			c0-0.24,0.145-0.48,0.432-0.648C331.464,26.354,331.609,26.307,331.753,26.307z M334.609,25.778c0.24,0,0.479,0.145,0.646,0.385
			c0.553,0.744,1.105,1.584,1.465,2.376c0.098,0.168,0.121,0.336,0.121,0.479c0,0.312-0.168,0.553-0.434,0.696
			c-0.119,0.048-0.264,0.097-0.383,0.097c-0.266,0-0.506-0.145-0.697-0.504c-0.383-0.793-0.816-1.609-1.344-2.329
			c-0.119-0.144-0.168-0.288-0.168-0.432c0-0.24,0.145-0.456,0.385-0.624C334.345,25.827,334.464,25.778,334.609,25.778z"/>
		<path fill="#FFFFFF" stroke="#FFFFFF" stroke-width="0.25" stroke-miterlimit="10" d="M345.767,47.068
			c0,0.647-0.453,0.912-1.055,0.912c-0.648,0-1.057-0.265-1.057-0.912V28.419c0-0.648,0.408-0.912,1.057-0.912
			c0.602,0,1.055,0.264,1.055,0.936v6.169c3.625,0.96,8.09,2.568,11.715,4.296c0.457,0.217,0.646,0.576,0.646,1.009
			c0,0.168-0.021,0.336-0.096,0.528c-0.145,0.408-0.527,0.695-0.959,0.695c-0.168,0-0.336-0.048-0.504-0.119
			c-3.17-1.609-7.297-3.265-10.803-4.273V47.068L345.767,47.068z"/>
		<path fill="#FFFFFF" stroke="#FFFFFF" stroke-width="0.25" stroke-miterlimit="10" d="M367.439,29.091
			c0-0.6,0.408-0.984,1.031-0.984c0.602,0,1.059,0.36,1.059,1.008V34.3c0,3.863-0.48,6.672-1.32,8.641
			c-0.84,1.872-2.018,3.432-3.385,4.439c-0.289,0.24-0.602,0.336-0.889,0.336c-0.312,0-0.625-0.143-0.816-0.383
			c-0.191-0.217-0.264-0.457-0.264-0.721c0-0.336,0.168-0.648,0.48-0.84c1.223-0.864,2.279-2.112,2.975-3.769
			c0.723-1.8,1.129-4.2,1.129-7.872V29.091z M373.73,28.923c0-0.6,0.383-0.96,1.031-0.96c0.6,0,1.057,0.36,1.057,0.96l-0.098,15.361
			c0,0.432,0.191,0.672,0.602,0.672c0.168,0,0.408-0.048,0.695-0.168c2.688-1.176,4.057-3.312,5.279-5.928
			c0.193-0.385,0.457-0.553,0.793-0.553c0.168,0,0.359,0.049,0.527,0.145c0.336,0.144,0.553,0.479,0.553,0.863
			c0,0.121-0.023,0.265-0.096,0.433c-1.465,3.624-4.395,6.576-7.227,7.272c-0.432,0.096-0.814,0.145-1.15,0.145
			c-1.346,0-2.064-0.769-2.064-2.305L373.73,28.923z"/>
	</g>
	<g>
		<path fill="#FFFFFF" d="M212.392,20.696c0.29,0.27,0.7,1,0.771,1.391c-0.522,0.449-1.292,0.804-2,1.197
			c-0.696,0.387-1.391,0.842-2.041,1.041c-0.294-0.186-0.848-1.066-0.736-1.41c0.371-0.361,1.346-0.834,2.066-1.233
			C211.134,21.304,211.778,20.878,212.392,20.696z"/>
		<path fill="#FFFFFF" d="M208.93,25.497c1.901-1.024,3.844-2.189,5.721-3.125c0.169,0.188,0.414,0.601,0.471,0.849
			c-1.823,1.085-3.918,2.245-5.803,3.216c-0.167-0.168-0.397-0.584-0.452-0.814C208.872,25.577,208.897,25.536,208.93,25.497z"/>
		<path fill="#FFFFFF" d="M210.438,26.702c1.361-0.725,2.76-1.588,4.096-2.225c0.271,0.158,0.312,0.734,0.595,0.999
			c0.124,0.113,0.418,0.085,0.735,0.126c0.668,0.084,1.534,0.243,2.104,0.432c1.664,0.55,3.183,1.256,4.233,3.953
			c-3.735,2.07-7.469,4.14-11.201,6.209c-0.4-0.859-0.989-1.557-1.207-2.259c-0.687-2.216,0.458-4.3,1.147-6.093
			c-0.183-0.328-0.363-0.657-0.546-0.985C210.387,26.801,210.401,26.747,210.438,26.702z"/>
		<path fill="#FFFFFF" d="M211.504,37.025c3.733-2.069,7.466-4.138,11.201-6.208c1.016,1.834,2.03,3.666,3.049,5.5
			c-3.745,2.075-7.491,4.15-11.235,6.227c-0.998-1.799-1.996-3.598-2.993-5.397C211.496,37.101,211.468,37.054,211.504,37.025z"/>
		<path fill="#FFFFFF" d="M215.023,43.374c3.732-2.07,7.466-4.14,11.201-6.209c1.688,3.125,3.485,6.191,5.228,9.436
			c0.496,0.926,1.389,2.109,1.535,3.008c0.082,0.511-0.126,1.099-0.442,1.445c-0.441,0.484-1.438,0.887-2.201,1.31
			c-1.689,0.937-2.924,1.62-4.616,2.559c-0.695,0.385-1.621,1.028-2.281,1.173c-0.549,0.123-1.242-0.056-1.633-0.469
			c-0.323-0.344-0.572-0.951-0.862-1.474c-1.971-3.555-3.939-7.106-5.906-10.659C215.015,43.448,214.985,43.401,215.023,43.374z
			 M219.728,43.296c-0.077,0.408-0.016,0.973-0.023,1.477c-0.014,0.556-0.025,1.078-0.026,1.478c0.702-0.026,1.37,0.058,2.085-0.002
			c-0.036-1.247,0.054-2.458,0.034-3.7C221.029,41.915,219.881,42.458,219.728,43.296z M224.675,41.573
			c-0.354-0.149-0.521-0.387-0.822-0.521c-0.799-0.354-1.63,0.367-2.689,0.914c0.752,0.296,1.661,0.91,2.457,1.391
			c-0.15,0.213-0.29,0.43-0.389,0.658c0.804-0.252,1.58-0.406,2.402-0.71c-0.229-0.788-0.328-1.694-0.572-2.391
			C224.956,41.141,224.812,41.356,224.675,41.573z M225.721,44.587c1.061,0.681,2.14,1.303,3.211,1.947
			c0.903-0.484,1.113-1.449,0.485-2.087c-0.291-0.294-0.852-0.56-1.303-0.83c-0.495-0.298-0.994-0.583-1.355-0.759
			C226.454,43.446,226.104,44.02,225.721,44.587z M218.861,48.698c0.257,0.029,0.544-0.034,0.784,0.055
			c-0.045,0.635-0.129,1.344,0.426,1.807c0.455,0.382,1.284,0.687,1.709,1.004c-0.236-1.002-0.083-1.889-0.051-2.813
			c0.237,0.013,0.472,0.019,0.714,0.007c-0.575-0.623-1.17-1.171-1.76-1.734C220.067,47.579,219.429,48.129,218.861,48.698z
			 M227.347,47.679c-0.116-0.227-0.266-0.338-0.375-0.592c-0.25,0.67-0.439,1.605-0.626,2.39c0.657,0.146,1.443,0.469,2.077,0.624
			c0.051,0.011,0.227,0.158,0.225,0.008c-0.091-0.209-0.296-0.448-0.304-0.63c1.835-0.562,1.32-2.036,1.376-3.203
			c0.02-0.011,0.023-0.048-0.02-0.034C229.199,46.802,228.102,47.19,227.347,47.679z M221.94,50.81
			c-0.035,0.312,0.031,0.682,0.282,0.994c0.883,1.094,2.517-0.386,3.933-1.069c-0.215-0.575-0.658-1.217-0.961-1.817
			c-1.073,0.586-2.161,1.226-3.211,1.734C221.946,50.696,221.931,50.75,221.94,50.81z"/>
	</g>
</g>
</svg>
