<?xml version="1.0" encoding="utf-8"?>
<!-- Generator: Adobe Illustrator 15.0.2, SVG Export Plug-In . SVG Version: 6.00 Build 0)  -->
<!DOCTYPE svg PUBLIC "-//W3C//DTD SVG 1.1//EN" "http://www.w3.org/Graphics/SVG/1.1/DTD/svg11.dtd">
<svg version="1.1" id="レイヤー_4" xmlns="http://www.w3.org/2000/svg" xmlns:xlink="http://www.w3.org/1999/xlink" x="0px"
	 y="0px" width="108.272px" height="34.974px" viewBox="242.899 19.642 108.272 34.974"
	 enable-background="new 242.899 19.642 108.272 34.974" xml:space="preserve">
<g>
	<g>
		<path fill="#FFFFFF" stroke="#FFFFFF" stroke-width="0.25" stroke-miterlimit="10" d="M281.039,42.732
			c-0.432,0-0.672-0.36-0.672-0.84s0.24-0.792,0.672-0.792h4.368v-1.44c0-0.48,0.312-0.696,0.84-0.696s0.84,0.216,0.84,0.696v1.44
			h4.032c0.432,0,0.672,0.312,0.672,0.792c0,0.456-0.24,0.84-0.672,0.84h-3.312c0.888,1.056,1.776,1.8,2.616,2.376
			c0.24,0.168,0.36,0.432,0.36,0.696c0,0.192-0.072,0.384-0.192,0.552c-0.192,0.24-0.456,0.36-0.696,0.36
			c-0.168,0-0.336-0.072-0.504-0.192c-0.84-0.696-1.824-1.896-2.544-3.072c0.168,0.72,0.24,1.608,0.24,2.28v4.752
			c0,0.432-0.336,0.672-0.864,0.672c-0.528,0-0.84-0.24-0.84-0.672v-4.488c0-0.744,0.096-1.632,0.24-2.328
			c-0.816,1.968-2.376,3.792-4.008,5.064c-0.168,0.12-0.36,0.192-0.552,0.192c-0.264,0-0.528-0.144-0.696-0.408
			c-0.096-0.168-0.144-0.336-0.144-0.504c0-0.264,0.12-0.528,0.384-0.72c1.608-1.128,3.12-2.784,4.152-4.56H281.039z
			 M291.192,36.756c0.432,0,0.696,0.36,0.696,0.84s-0.264,0.84-0.696,0.84h-10.153c-0.432,0-0.672-0.36-0.672-0.84
			s0.24-0.84,0.672-0.84h5.904c0.624-1.152,1.128-2.4,1.344-3.265c0.096-0.384,0.384-0.576,0.744-0.576
			c0.072,0,0.168,0.024,0.288,0.048c0.36,0.072,0.648,0.264,0.648,0.6c0,0.072,0,0.144-0.024,0.24
			c-0.264,0.816-0.72,1.896-1.32,2.953H291.192z M290.952,30.995c0.432,0,0.696,0.336,0.696,0.816s-0.264,0.84-0.696,0.84h-9.457
			c-0.432,0-0.696-0.36-0.696-0.84s0.264-0.816,0.696-0.816h3.936v-1.608c0-0.408,0.384-0.696,0.937-0.696
			c0.528,0,0.936,0.288,0.936,0.696v1.608H290.952z M283.463,32.963c0.312,0,0.552,0.168,0.696,0.432
			c0.288,0.528,0.648,1.368,0.792,2.088c0.024,0.072,0.024,0.12,0.024,0.192c0,0.336-0.168,0.624-0.576,0.696
			c-0.096,0.024-0.216,0.048-0.312,0.048c-0.336,0-0.6-0.168-0.672-0.504c-0.144-0.624-0.432-1.44-0.72-1.992
			c-0.048-0.096-0.072-0.192-0.072-0.288c0-0.264,0.192-0.528,0.504-0.624C283.247,32.987,283.367,32.963,283.463,32.963z
			 M302.089,36.612c0.432,0,0.695,0.36,0.695,0.84s-0.265,0.864-0.695,0.864h-2.16v12.025c0,0.48-0.312,0.744-0.912,0.744
			c-0.526,0-0.864-0.264-0.864-0.744V38.316h-3.6c-0.048,3.384-0.24,5.665-0.72,7.44c-0.504,1.896-1.248,3.625-2.016,4.825
			c-0.192,0.312-0.504,0.456-0.84,0.456c-0.192,0-0.408-0.072-0.576-0.192c-0.264-0.168-0.384-0.408-0.384-0.672
			c0-0.192,0.072-0.408,0.216-0.624c0.792-1.128,1.488-2.688,1.92-4.393c0.504-2.064,0.648-4.44,0.648-8.785V33.06
			c0-1.32,0.576-1.92,1.656-2.088c2.016-0.336,4.32-0.888,6.265-1.656c0.146-0.048,0.287-0.072,0.408-0.072
			c0.336,0,0.623,0.168,0.816,0.504c0.069,0.168,0.096,0.36,0.096,0.504c0,0.336-0.145,0.624-0.432,0.72
			c-2.113,0.744-4.37,1.272-6.338,1.584c-0.552,0.096-0.696,0.312-0.696,1.032v3.024H302.089z"/>
		<path fill="#FFFFFF" stroke="#FFFFFF" stroke-width="0.25" stroke-miterlimit="10" d="M314.376,35.076
			c0,1.248-0.6,1.728-1.969,1.728h-5.281v13.633c0,0.504-0.336,0.744-0.912,0.744c-0.527,0-0.912-0.24-0.912-0.744v-19.13
			c0-1.248,0.603-1.824,1.97-1.824h5.137c1.369,0,1.969,0.48,1.969,1.729L314.376,35.076L314.376,35.076z M312.671,31.499
			c0-0.432-0.287-0.6-0.719-0.6H307.8c-0.457,0-0.672,0.168-0.672,0.6v0.984h5.545v-0.984H312.671z M312.671,33.803h-5.545v1.632
			h4.826c0.432,0,0.719-0.168,0.719-0.6V33.803L312.671,33.803z M318.384,47.533c-2.735,0.48-5.953,0.816-8.735,1.008
			c-0.025,0-0.05,0-0.05,0c-0.479,0-0.743-0.264-0.793-0.768c0-0.048,0-0.072,0-0.12c0-0.432,0.267-0.648,0.722-0.672
			c0.407-0.024,0.84-0.048,1.271-0.072V39.54h-1.416c-0.383,0-0.6-0.312-0.6-0.72c0-0.432,0.217-0.696,0.6-0.696h12.242
			c0.408,0,0.6,0.264,0.6,0.696c0,0.408-0.19,0.72-0.6,0.72h-1.609v10.369c0,0.408-0.358,0.6-0.813,0.6
			c-0.48,0-0.816-0.192-0.816-0.6L318.384,47.533L318.384,47.533z M312.431,39.54v1.416h5.953V39.54H312.431z M312.431,42.228v1.417
			h5.953v-1.417H312.431z M318.384,44.917h-5.953v1.896c1.992-0.168,3.984-0.36,5.953-0.648V44.917z M325.73,48.565
			c0,1.584-0.675,2.232-2.354,2.232c-0.648,0-1.416-0.072-1.896-0.168c-0.386-0.096-0.648-0.336-0.648-0.792
			c0-0.048,0-0.096,0-0.168c0.072-0.456,0.336-0.744,0.721-0.744c0.072,0,0.119,0,0.191,0.024c0.358,0.072,0.889,0.168,1.32,0.168
			c0.743,0,0.889-0.144,0.889-1.032V36.804h-5.666c-1.344,0-1.943-0.48-1.943-1.728v-3.864c0-1.249,0.601-1.729,1.943-1.729h5.473
			c1.394,0,1.97,0.576,1.97,1.824L325.73,48.565L325.73,48.565z M323.953,31.499c0-0.432-0.215-0.6-0.648-0.6h-4.537
			c-0.432,0-0.719,0.168-0.719,0.6v0.984h5.904V31.499L323.953,31.499z M323.953,33.803h-5.904v1.032c0,0.432,0.289,0.6,0.722,0.6
			h5.186v-1.632H323.953z"/>
		<path fill="#FFFFFF" stroke="#FFFFFF" stroke-width="0.25" stroke-miterlimit="10" d="M331.007,43.236c0,0.024,0,0.024,0,0.048
			c-0.121,2.016-0.529,4.32-1.057,5.856c-0.119,0.336-0.433,0.552-0.791,0.552c-0.096,0-0.217-0.024-0.336-0.048
			c-0.361-0.12-0.603-0.384-0.603-0.72c0-0.096,0.025-0.168,0.05-0.264c0.575-1.632,0.936-3.696,1.079-5.544
			c0.023-0.384,0.359-0.576,0.791-0.576c0.025,0,0.05,0,0.072,0C330.623,42.564,331.007,42.78,331.007,43.236z M332.279,40.956
			c-1.104,0.072-2.207,0.144-3.265,0.168c-0.407,0.024-0.744-0.24-0.744-0.792c0,0,0-0.024,0-0.048c0-0.024,0-0.048,0-0.072
			c0-0.456,0.265-0.72,0.695-0.72c0.217,0,0.457,0,0.697,0c0.143,0,0.287,0,0.432,0c0.601-0.744,1.176-1.488,1.729-2.28
			c-0.961-1.272-2.138-2.521-3.193-3.504c-0.168-0.144-0.24-0.336-0.24-0.528c0-0.192,0.099-0.408,0.24-0.6
			c0.193-0.216,0.408-0.312,0.603-0.312c0.168,0,0.311,0.048,0.432,0.168c0.191,0.192,0.408,0.384,0.623,0.6
			c0.889-1.272,1.609-2.64,2.16-3.816c0.121-0.264,0.385-0.384,0.647-0.384c0.168,0,0.312,0.024,0.48,0.096
			c0.287,0.168,0.504,0.408,0.504,0.72c0,0.12-0.025,0.24-0.096,0.384c-0.603,1.272-1.466,2.688-2.568,4.2
			c0.48,0.552,0.936,1.08,1.367,1.632c0.961-1.416,1.824-2.784,2.473-3.96c0.168-0.288,0.383-0.432,0.648-0.432
			c0.119,0,0.287,0.048,0.432,0.12c0.312,0.168,0.527,0.432,0.527,0.744c0,0.096-0.023,0.216-0.097,0.336
			c-1.248,2.136-3.049,4.8-4.729,6.769c1.176-0.048,2.352-0.144,3.527-0.288c-0.24-0.552-0.504-1.104-0.744-1.536
			c-0.072-0.12-0.097-0.24-0.097-0.36c0-0.24,0.146-0.48,0.455-0.6c0.121-0.072,0.24-0.096,0.361-0.096
			c0.287,0,0.527,0.168,0.672,0.432c0.527,1.032,1.271,2.568,1.656,3.696c0.022,0.096,0.047,0.168,0.047,0.264
			c0,0.288-0.191,0.552-0.527,0.672c-0.118,0.048-0.239,0.072-0.358,0.072c-0.289,0-0.554-0.144-0.648-0.432
			c-0.072-0.24-0.168-0.48-0.264-0.744c-0.697,0.12-1.416,0.192-2.113,0.264v9.721c0,0.408-0.359,0.624-0.887,0.624
			c-0.48,0-0.84-0.24-0.84-0.648L332.279,40.956L332.279,40.956z M335.855,42.324c0.286,0,0.526,0.12,0.625,0.432
			c0.479,1.368,0.862,2.832,1.055,4.224c0,0.048,0,0.096,0,0.12c0,0.384-0.312,0.624-0.719,0.672
			c-0.05,0.024-0.099,0.024-0.168,0.024c-0.339,0-0.625-0.192-0.697-0.624c-0.191-1.344-0.504-2.809-0.912-4.057
			c-0.023-0.072-0.023-0.12-0.023-0.168c0-0.312,0.265-0.528,0.576-0.6C335.689,42.324,335.785,42.324,335.855,42.324z
			 M340.343,48.109c1.226-0.384,2.377-0.792,3.289-1.176c0.121-0.048,0.217-0.072,0.312-0.072c0.289,0,0.526,0.192,0.647,0.576
			c0.047,0.12,0.072,0.24,0.072,0.336c0,0.336-0.168,0.576-0.48,0.696c-1.848,0.768-4.774,1.752-7.008,2.28
			c-0.096,0.024-0.19,0.024-0.289,0.024c-0.405,0-0.672-0.24-0.791-0.696c-0.022-0.072-0.022-0.168-0.022-0.24
			c0-0.432,0.264-0.696,0.672-0.768c0.576-0.12,1.176-0.288,1.799-0.456V32.867c0-1.152,0.602-1.752,1.656-1.872
			c3.098-0.24,5.906-0.888,8.473-1.776c0.121-0.024,0.24-0.048,0.336-0.048c0.361,0,0.625,0.192,0.771,0.6
			c0.047,0.144,0.069,0.288,0.069,0.408c0,0.36-0.19,0.624-0.551,0.744c-1.176,0.384-2.521,0.72-3.865,1.008
			c0.025,1.968,0.072,3.937,0.267,5.905l4.149-0.144c0.457,0,0.697,0.36,0.722,0.84c0,0.48-0.215,0.84-0.672,0.864l-4.058,0.144
			c0.215,1.776,0.455,3.12,0.648,4.056c0.432,2.064,1.271,3.937,1.848,4.537c0.146,0.168,0.264,0.264,0.359,0.264
			c0.121,0,0.239-0.12,0.336-0.36c0.168-0.408,0.289-1.152,0.358-1.872c0.05-0.6,0.361-0.816,0.793-0.816
			c0.05,0,0.119,0,0.191,0.024c0.48,0.048,0.672,0.336,0.672,0.768c0,0.048,0,0.096,0,0.144c-0.096,1.272-0.408,2.712-0.887,3.504
			c-0.312,0.504-0.793,0.768-1.32,0.768c-0.432,0-0.912-0.168-1.344-0.552c-1.057-0.864-1.848-2.568-2.521-4.968
			c-0.358-1.296-0.694-3.048-0.936-5.449l-3.697,0.12L340.343,48.109L340.343,48.109z M343.896,37.884
			c-0.145-1.872-0.19-3.769-0.217-5.641c-0.862,0.144-1.727,0.264-2.543,0.336c-0.6,0.096-0.793,0.216-0.793,0.816v4.608
			L343.896,37.884z"/>
	</g>
	<g>
		<path fill="#FFFFFF" d="M247.402,28.979c0.719-1.311,1.508-2.95,2.253-4.432c0.218-0.433,0.419-1.212,0.944-1.271
			c0.315-0.036,0.579,0.164,0.835,0.327c0.709,0.452,1.411,0.929,2.107,1.344c0.243-0.484,0.389-0.992,0.618-1.598
			c0.174-0.462,0.346-1.251,0.835-1.344c0.268-0.05,0.492,0.048,0.727,0.182c0.565,0.323,1.146,0.719,1.707,1.018
			c0.315-0.719,0.803-1.903,1.163-2.761c0.158-0.376,0.279-0.755,0.69-0.799c0.522-0.056,1.174,0.615,1.49,0.872
			c2.675,2.179,5.141,4.149,7.737,6.285c0.586,0.482,1.22,0.951,1.599,1.598c0.166,0.284,0.323,0.69,0.327,1.054
			c0.005,0.435-0.183,0.988-0.291,1.526c-1.4,6.961-2.835,14.073-4.25,21.106c-0.1,0.495-0.129,1.146-0.327,1.562
			c-0.204,0.428-0.872,0.871-1.525,0.944c-1.058,0.119-2.096-0.235-2.906-0.545c-0.87-0.333-1.778-0.542-2.616-0.799
			c-1.864-0.574-3.261-1.014-5.231-1.635c-2.77-0.873-6.158-1.959-9.118-2.87c-0.482-0.148-1.015-0.239-1.163-0.545
			c-0.186-0.385-0.073-1.51-0.073-2.252c0-4.607,0-9.097,0-13.841c0-0.676-0.115-1.826,0.073-2.216
			c0.214-0.445,1.28-0.687,1.889-0.799C245.727,28.934,246.584,28.923,247.402,28.979z M268.037,28.252
			c-2.758-2.255-5.606-4.509-8.356-6.721c-0.332,0.818-0.676,1.624-1.017,2.434c2.604,1.561,5.292,3.127,7.883,4.686
			c0.69,0.415,1.391,1.047,2.434,0.799C268.835,28.951,268.424,28.569,268.037,28.252z M265.639,29.814
			c-3.384-2.025-6.693-4.055-10.062-6.03c-0.039-0.064-0.063,0.052-0.073,0.073c-0.251,0.536-0.447,1.286-0.69,1.889
			c2.388,1.567,4.919,3.187,7.338,4.723c0.856,0.544,1.738,0.908,1.853,2.143c0.075,0.801-0.071,1.684-0.109,2.543
			c-0.266,6.041-0.543,11.994-0.835,17.982c0.376,0.05,0.922,0.083,1.163-0.109c1.536-7.316,2.966-14.738,4.468-22.087
			C267.292,30.938,266.521,30.343,265.639,29.814z M261.97,32.067c-0.249-0.147-0.5-0.328-0.727-0.473
			c-3.402-2.167-6.815-4.37-10.171-6.539c-0.025,0-0.049,0-0.073,0c-0.686,1.336-1.364,2.68-1.999,4.068
			c3.743,0.552,6.938,1.626,9.917,2.87c0.427,0.178,0.836,0.434,1.271,0.581c0.715,0.242,1.597,0.212,2.362,0.073
			C262.556,32.281,262.2,32.202,261.97,32.067z M258.3,33.302c-1.562-0.643-3.144-1.205-4.831-1.708
			c-2.477-0.737-6.08-1.701-9.082-0.908c0,5.546,0,11.092,0,16.638c4.286,1.358,8.722,2.717,13.005,4.032
			c1.33,0.409,2.785,0.87,4.033,1.308c0.033,0.012,0.189,0.098,0.218,0c0.316-6.162,0.593-12.363,0.872-18.563
			C260.746,34.479,259.414,33.761,258.3,33.302z"/>
	</g>
</g>
</svg>
