<?xml version="1.0" encoding="utf-8"?>
<!-- Generator: Adobe Illustrator 15.0.2, SVG Export Plug-In . SVG Version: 6.00 Build 0)  -->
<!DOCTYPE svg PUBLIC "-//W3C//DTD SVG 1.1//EN" "http://www.w3.org/Graphics/SVG/1.1/DTD/svg11.dtd">
<svg version="1.1" id="レイヤー_4" xmlns="http://www.w3.org/2000/svg" xmlns:xlink="http://www.w3.org/1999/xlink" x="0px"
	 y="0px" width="94.789px" height="22.571px" viewBox="251.096 24.165 94.789 22.571"
	 enable-background="new 251.096 24.165 94.789 22.571" xml:space="preserve">
<g>
	<g>
		<path fill="#FFFFFF" stroke="#FFFFFF" stroke-width="0.25" stroke-miterlimit="10" d="M252.324,34.13
			c-0.432,0-0.672-0.312-0.672-0.816c0-0.479,0.24-0.815,0.672-0.815h3.36v-7.536c0-0.433,0.36-0.673,0.888-0.673
			c0.528,0,0.792,0.24,0.792,0.673v7.536h2.809c0.432,0,0.672,0.336,0.672,0.815c0,0.48-0.24,0.816-0.672,0.816h-2.712
			c0.864,1.824,2.04,3.433,3.12,4.561c0.192,0.168,0.288,0.432,0.288,0.672c0,0.191-0.072,0.385-0.216,0.553
			c-0.192,0.168-0.408,0.287-0.624,0.287c-0.24,0-0.456-0.119-0.672-0.359c-0.84-1.032-1.632-2.328-2.256-3.984
			c0.12,0.936,0.264,2.328,0.264,3.24v6.816c0,0.456-0.312,0.695-0.864,0.695c-0.528,0-0.816-0.239-0.816-0.695v-6.049
			c0-1.008,0.12-2.544,0.288-3.912c-0.576,2.184-1.872,4.656-3.144,6.217c-0.216,0.264-0.456,0.408-0.72,0.408
			c-0.192,0-0.384-0.072-0.576-0.24c-0.192-0.168-0.312-0.408-0.312-0.648c0-0.24,0.096-0.456,0.264-0.672
			c1.632-1.92,3.096-4.225,3.913-6.889L252.324,34.13L252.324,34.13z M252.804,25.825c0.288,0,0.552,0.145,0.696,0.456
			c0.528,1.152,0.984,2.929,1.248,4.177c0,0.072,0,0.119,0,0.168c0,0.455-0.168,0.695-0.576,0.792
			c-0.12,0.024-0.24,0.048-0.336,0.048c-0.36,0-0.648-0.191-0.72-0.576c-0.264-1.225-0.696-2.977-1.2-4.104
			c-0.024-0.071-0.024-0.144-0.024-0.216c0-0.288,0.192-0.553,0.552-0.696C252.563,25.849,252.684,25.825,252.804,25.825z
			 M261.18,26.497c0,0.072,0,0.145-0.024,0.217c-0.264,1.271-0.864,3.072-1.464,4.32c-0.144,0.336-0.36,0.479-0.648,0.479
			c-0.12,0-0.216-0.024-0.36-0.071c-0.312-0.121-0.504-0.385-0.504-0.673c0-0.096,0.024-0.216,0.072-0.312
			c0.552-1.152,1.104-2.977,1.344-4.177c0.096-0.336,0.384-0.504,0.72-0.504c0.072,0,0.168,0,0.24,0.024
			C260.988,25.873,261.18,26.138,261.18,26.497z M273.349,44.211c0.408,0,0.672,0.312,0.672,0.815s-0.24,0.841-0.672,0.841h-13.417
			c-0.432,0-0.672-0.337-0.672-0.841c0-0.479,0.24-0.815,0.672-0.815h1.968V27.146c0-1.44,0.672-2.016,2.04-2.016h5.953
			c1.392,0,2.04,0.575,2.04,2.016v17.065H273.349z M270.133,31.202v-3.721c0-0.528-0.24-0.672-0.696-0.672h-5.041
			c-0.48,0-0.696,0.144-0.696,0.672v3.721H270.133z M270.133,32.858h-6.432v4.535h6.432V32.858z M263.701,39.074v5.137h6.432v-5.137
			H263.701z"/>
		<path fill="#FFFFFF" stroke="#FFFFFF" stroke-width="0.25" stroke-miterlimit="10" d="M287.316,31.874
			c0.72,2.952,2.088,5.424,3.744,7.393c1.776,2.111,3.96,3.721,6.049,4.68c0.384,0.168,0.552,0.48,0.552,0.816
			c0,0.217-0.072,0.456-0.192,0.648c-0.192,0.336-0.528,0.504-0.864,0.504c-0.192,0-0.408-0.048-0.6-0.145
			c-2.304-1.127-4.681-3.072-6.385-5.256c-1.368-1.752-2.472-3.816-3.168-6.145c-0.384,1.607-0.936,3.049-1.704,4.44
			c-1.704,3.12-4.488,5.616-7.729,7.081c-0.168,0.071-0.336,0.119-0.48,0.119c-0.336,0-0.672-0.168-0.888-0.6
			c-0.096-0.168-0.144-0.36-0.144-0.528c0-0.336,0.192-0.624,0.528-0.792c3.336-1.512,5.592-3.456,7.128-6.312
			c0.984-1.801,1.536-3.6,1.848-5.904h-8.497c-0.48,0-0.744-0.432-0.744-0.961c0-0.504,0.264-0.912,0.744-0.912h8.688
			c0.096-1.344,0.144-2.879,0.144-4.656c0-0.576,0.408-0.815,0.984-0.815c0.6,0,0.96,0.288,0.96,0.815
			c0,1.681-0.048,3.217-0.168,4.656h9.505c0.48,0,0.744,0.408,0.744,0.912c0,0.529-0.264,0.961-0.744,0.961L287.316,31.874
			L287.316,31.874z"/>
		<path fill="#FFFFFF" stroke="#FFFFFF" stroke-width="0.25" stroke-miterlimit="10" d="M303.851,35.401
			c0.24-0.215,0.529-0.336,0.816-0.336c0.24,0,0.457,0.072,0.648,0.24c0.239,0.192,0.336,0.408,0.336,0.648
			c0,0.216-0.097,0.456-0.312,0.648c-1.08,1.008-1.727,2.04-1.727,3.023c0,1.152,0.646,1.849,1.942,2.281
			c1.152,0.383,2.688,0.576,4.752,0.576c2.882,0,5.4-0.361,7.199-0.769c0.146-0.024,0.289-0.048,0.408-0.048
			c0.504,0,0.84,0.264,0.936,0.768c0.025,0.12,0.05,0.24,0.05,0.336c0,0.528-0.359,0.889-0.959,1.057
			c-1.873,0.504-4.488,0.744-7.584,0.744c-2.546,0-4.584-0.312-6.025-0.864c-1.775-0.744-2.736-1.968-2.736-3.792
			C301.595,38.45,302.244,36.843,303.851,35.401z M313.621,28.753c-1.391,0.145-3.072,0.24-4.584,0.24
			c-1.943,0-3.912-0.048-5.354-0.191c-0.526-0.072-0.813-0.432-0.813-0.937c0-0.048,0-0.096,0-0.168
			c0.072-0.552,0.408-0.84,0.959-0.84c0.049,0,0.096,0,0.121,0c1.512,0.12,3.646,0.192,5.903,0.192c2.375,0,4.584-0.097,6.072-0.192
			c0.023,0,0.072,0,0.119,0c0.504,0,0.938,0.312,1.057,0.744c0.023,0.144,0.05,0.288,0.05,0.433c0,0.407-0.193,0.719-0.648,0.959
			c-1.777,0.912-3.77,2.088-5.594,3.072c-0.265,0.145-0.527,0.217-0.744,0.217c-0.264,0-0.504-0.121-0.672-0.336
			c-0.119-0.145-0.168-0.312-0.168-0.504c0-0.289,0.145-0.576,0.457-0.744c1.055-0.553,2.397-1.177,3.887-1.824L313.621,28.753z
			 M315.902,31.298c0.215,0,0.432,0.072,0.623,0.264c0.694,0.744,1.366,1.633,1.896,2.377c0.096,0.168,0.146,0.359,0.146,0.527
			c0,0.264-0.121,0.504-0.312,0.648c-0.168,0.119-0.385,0.191-0.6,0.191c-0.267,0-0.504-0.096-0.648-0.336
			c-0.504-0.768-1.176-1.632-1.801-2.352c-0.119-0.145-0.168-0.312-0.168-0.48c0-0.264,0.121-0.504,0.336-0.672
			C315.517,31.346,315.708,31.298,315.902,31.298z M318.349,29.857c0.24,0,0.48,0.097,0.672,0.288
			c0.648,0.672,1.32,1.561,1.775,2.28c0.146,0.216,0.217,0.408,0.217,0.601c0,0.24-0.121,0.455-0.336,0.6
			c-0.168,0.096-0.358,0.168-0.553,0.168c-0.24,0-0.504-0.12-0.695-0.408c-0.504-0.744-1.129-1.584-1.68-2.208
			c-0.145-0.144-0.217-0.336-0.217-0.504c0-0.265,0.145-0.528,0.358-0.673C318.037,29.905,318.181,29.857,318.349,29.857z"/>
		<path fill="#FFFFFF" stroke="#FFFFFF" stroke-width="0.25" stroke-miterlimit="10" d="M333.419,28.394
			c0.025-0.096,0.025-0.168,0.025-0.24c0-0.336-0.193-0.48-0.576-0.48c-0.025,0-0.049,0-0.072,0
			c-1.729,0.072-3.865,0.168-5.713,0.168c-0.527,0-0.936-0.312-0.959-0.84c0-0.023,0-0.023,0-0.048c0-0.6,0.383-0.937,0.887-0.96
			c2.113-0.023,4.396-0.072,6.457-0.12c0.072,0,0.146,0,0.193,0c0.623,0,1.127,0.216,1.488,0.601
			c0.264,0.287,0.405,0.648,0.405,1.176c0,0.264-0.047,0.576-0.119,0.912c-0.312,1.393-0.79,3.12-1.319,4.873
			c1.896,0.215,4.057,0.959,5.93,1.871c0.168-1.464,0.24-3.168,0.24-5.137c0-0.623,0.408-0.959,0.936-0.959
			c0.576,0,1.011,0.312,1.011,0.912c0,0.191,0,0.384,0,0.576c0,2.111-0.121,4.008-0.361,5.568c1.271,0.768,2.399,1.607,3.432,2.592
			c0.312,0.264,0.457,0.624,0.457,0.936c0,0.265-0.071,0.504-0.239,0.672c-0.191,0.265-0.455,0.385-0.722,0.385
			c-0.264,0-0.504-0.096-0.719-0.312c-0.816-0.815-1.68-1.535-2.713-2.207c-0.887,3.479-2.832,5.76-6.025,7.08
			c-0.19,0.072-0.358,0.119-0.526,0.119c-0.359,0-0.648-0.168-0.791-0.504c-0.072-0.144-0.099-0.287-0.099-0.432
			c0-0.408,0.24-0.744,0.603-0.912c2.76-1.128,4.416-3.096,5.16-6.385c-1.753-1.056-4.08-1.848-6.146-2.111
			c-0.697,2.016-1.488,3.96-2.281,5.424c-1.223,2.305-2.446,3.024-3.862,3.024c-1.535,0-3.121-1.368-3.121-4.081
			c0-3.72,2.881-6.264,7.944-6.264C332.748,31.562,333.156,29.905,333.419,28.394z M326.148,39.411c0,1.512,0.646,2.184,1.366,2.184
			c0.695,0,1.394-0.48,2.279-2.184c0.648-1.249,1.297-2.761,1.824-4.346C328.14,35.065,326.148,36.914,326.148,39.411z"/>
	</g>
</g>
</svg>
