<?xml version="1.0" encoding="utf-8"?>
<!-- Generator: Adobe Illustrator 15.0.2, SVG Export Plug-In . SVG Version: 6.00 Build 0)  -->
<!DOCTYPE svg PUBLIC "-//W3C//DTD SVG 1.1//EN" "http://www.w3.org/Graphics/SVG/1.1/DTD/svg11.dtd">
<svg version="1.1" id="レイヤー_1" xmlns="http://www.w3.org/2000/svg" xmlns:xlink="http://www.w3.org/1999/xlink" x="0px"
	 y="0px" width="182.779px" height="34.93px" viewBox="202.189 20.894 182.779 34.93"
	 enable-background="new 202.189 20.894 182.779 34.93" xml:space="preserve">
<g>
	<g>
		<path fill="#FFFFFF" stroke="#FFFFFF" stroke-width="0.25" stroke-miterlimit="10" d="M252.026,38.584
			c0.456,0,0.696,0.312,0.696,0.815c0,0.48-0.24,0.84-0.696,0.84h-3.192c1.032,1.609,2.257,2.857,3.601,3.841
			c0.192,0.144,0.312,0.408,0.312,0.673c0,0.191-0.072,0.407-0.192,0.576c-0.168,0.239-0.432,0.359-0.672,0.359
			c-0.168,0-0.336-0.048-0.48-0.191c-1.176-1.009-2.256-2.232-3.096-3.793c0.12,0.864,0.168,1.776,0.168,2.568v4.297
			c0,0.383-0.312,0.647-0.84,0.647c-0.505,0-0.793-0.265-0.793-0.647v-4.225c0-0.816,0.072-1.633,0.192-2.449
			c-0.744,1.824-2.04,3.457-3.528,4.682c-0.168,0.119-0.336,0.191-0.528,0.191c-0.264,0-0.504-0.12-0.695-0.359
			c-0.145-0.193-0.217-0.361-0.217-0.553c0-0.216,0.12-0.456,0.408-0.648c1.536-1.199,2.952-2.855,4.009-4.969h-3.288
			c-0.456,0-0.696-0.359-0.696-0.815c0-0.504,0.24-0.84,0.696-0.84h3.647v-2.089c0-0.408,0.288-0.623,0.793-0.623
			c0.527,0,0.84,0.215,0.84,0.623v2.089H252.026z M263.956,46.721c0.384,0,0.624,0.36,0.624,0.84s-0.24,0.841-0.624,0.841h-8.281
			c-1.416,0-2.063-0.576-2.063-2.041v-9.912c0-0.697,0.048-1.656,0.144-2.665c-0.048,0.097-0.12,0.169-0.168,0.24
			c-0.192,0.24-0.408,0.36-0.624,0.36c-0.096,0-0.192-0.024-0.288-0.072c-0.048,0.648-0.096,1.32-0.192,1.561
			c-0.168,0.527-0.6,0.936-1.487,0.959c-0.12,0.024-0.265,0.024-0.385,0.024c-0.384,0-0.744-0.048-0.983-0.144
			c-0.505-0.192-0.673-0.6-0.673-1.272v-3.864c0-0.359-0.168-0.504-0.6-0.504h-1.104c-0.432,2.641-1.488,4.584-3.48,6.265
			c-0.216,0.192-0.432,0.288-0.647,0.288s-0.433-0.096-0.601-0.288c-0.191-0.144-0.288-0.36-0.288-0.576
			c0-0.216,0.097-0.433,0.288-0.601c1.729-1.392,2.641-2.928,3.049-5.088h-2.28c-0.432,0-0.648-0.36-0.648-0.816
			c0-0.48,0.217-0.84,0.648-0.84h2.496c0.048-0.6,0.072-1.225,0.072-1.92c0-0.48,0.359-0.672,0.84-0.672
			c0.528,0,0.816,0.216,0.816,0.672c0,0.672-0.024,1.32-0.072,1.92h1.368c1.128,0,1.68,0.48,1.68,1.729v3.72
			c0,0.24,0.072,0.408,0.385,0.408c0.312,0,0.359-0.096,0.384-0.288c0.048-0.264,0.072-1.584,0.072-1.872
			c0-0.312,0.312-0.528,0.672-0.528c0,0,0.023,0,0.048,0c0.216,0.024,0.408,0.096,0.528,0.217c1.151-1.584,2.136-3.625,2.712-5.521
			c0.096-0.359,0.36-0.527,0.696-0.527c0.12,0,0.216,0.023,0.359,0.048c0.385,0.12,0.601,0.36,0.601,0.672
			c0,0.097-0.024,0.192-0.048,0.312c-0.336,0.984-0.864,2.16-1.488,3.169c0.408-0.071,0.984-0.144,1.368-0.144h1.92
			c0.624-1.225,1.104-2.328,1.44-3.385c0.096-0.312,0.336-0.48,0.672-0.48c0.096,0,0.216,0.024,0.36,0.049
			c0.359,0.096,0.6,0.336,0.6,0.647c0,0.097-0.023,0.192-0.048,0.288c-0.36,0.961-0.744,1.92-1.272,2.881h3.265
			c0.384,0,0.648,0.312,0.648,0.791c0,0.505-0.265,0.865-0.648,0.865h-3.408v3.527h2.832c0.384,0,0.648,0.312,0.648,0.769
			c0,0.504-0.265,0.84-0.648,0.84h-2.832v3.48h2.832c0.408,0,0.648,0.336,0.648,0.815c0,0.48-0.24,0.793-0.648,0.793h-2.832v4.032
			h3.645V46.721z M256.011,32.464c-0.479,0-0.672,0.144-0.672,0.623v2.904h3.288v-3.527H256.011z M258.627,41.08V37.6h-3.288v3.48
			H258.627L258.627,41.08z M255.339,46.097c0,0.48,0.216,0.624,0.672,0.624h2.616v-4.032h-3.288V46.097L255.339,46.097z"/>
		<path fill="#FFFFFF" stroke="#FFFFFF" stroke-width="0.25" stroke-miterlimit="10" d="M273.41,28.312
			c0.072-0.625,0.433-0.841,0.912-0.841c0.072,0,0.145,0,0.217,0.024c0.552,0.048,0.863,0.336,0.863,0.816
			c0,0.071,0,0.144-0.023,0.215c-0.192,1.369-0.48,2.785-0.792,4.105c0.695-0.024,1.271-0.049,1.848-0.049
			c3.288,0,4.729,1.681,4.729,5.425c0,2.304-0.336,4.681-0.84,6.409c-0.672,2.352-2.04,3.216-3.961,3.216
			c-1.151,0-2.496-0.312-3.479-0.864c-0.336-0.191-0.528-0.527-0.528-0.889c0-0.168,0.023-0.336,0.12-0.479
			c0.144-0.336,0.432-0.528,0.768-0.528c0.192,0,0.408,0.049,0.624,0.168c0.696,0.336,1.656,0.601,2.545,0.601
			c1.008,0,1.632-0.433,2.063-1.968c0.385-1.345,0.696-3.625,0.696-5.762c0-2.664-0.696-3.552-2.952-3.552
			c-0.816,0-1.464,0.048-2.064,0.097c-0.384,1.392-0.815,2.808-1.296,4.199c-1.128,3.24-2.424,6.145-3.889,8.521
			c-0.239,0.432-0.575,0.6-0.912,0.6c-0.168,0-0.359-0.048-0.527-0.168c-0.336-0.191-0.528-0.504-0.528-0.84
			c0-0.191,0.048-0.408,0.192-0.624c1.439-2.304,2.736-5.04,3.816-8.089c0.384-1.128,0.792-2.28,1.104-3.456
			c-1.224,0.096-2.928,0.336-4.296,0.528c-0.072,0.023-0.145,0.023-0.217,0.023c-0.407,0-0.743-0.264-0.815-0.768
			c-0.024-0.049-0.024-0.12-0.024-0.192c0-0.456,0.312-0.815,0.816-0.888c1.44-0.217,3.433-0.457,4.992-0.576
			C272.931,31.263,273.194,29.774,273.41,28.312z M288.004,40.239c0,0.433-0.216,0.744-0.601,0.865
			c-0.144,0.072-0.312,0.096-0.456,0.096c-0.407,0-0.744-0.24-0.912-0.744c-0.888-2.713-2.544-6.192-4.44-8.545
			c-0.119-0.145-0.168-0.312-0.168-0.48c0-0.312,0.192-0.647,0.528-0.815c0.168-0.097,0.336-0.144,0.504-0.144
			c0.336,0,0.648,0.168,0.864,0.432c1.872,2.328,3.744,6.024,4.608,8.904C287.979,39.952,288.004,40.12,288.004,40.239z"/>
		<path fill="#FFFFFF" stroke="#FFFFFF" stroke-width="0.25" stroke-miterlimit="10" d="M300.267,30.927
			c0.023-0.096,0.023-0.168,0.023-0.24c0-0.336-0.191-0.479-0.576-0.479c-0.022,0-0.047,0-0.072,0
			c-1.728,0.072-3.863,0.168-5.71,0.168c-0.528,0-0.937-0.312-0.961-0.84c0-0.024,0-0.024,0-0.048c0-0.6,0.385-0.937,0.889-0.961
			c2.112-0.023,4.393-0.071,6.458-0.119c0.069,0,0.145,0,0.19,0c0.623,0,1.127,0.216,1.488,0.6c0.264,0.288,0.408,0.648,0.408,1.176
			c0,0.265-0.051,0.576-0.121,0.912c-0.312,1.393-0.791,3.121-1.32,4.873c1.896,0.216,4.057,0.96,5.93,1.872
			c0.168-1.464,0.238-3.169,0.238-5.137c0-0.624,0.408-0.96,0.938-0.96c0.575,0,1.008,0.312,1.008,0.912c0,0.191,0,0.385,0,0.576
			c0,2.112-0.119,4.008-0.359,5.568c1.271,0.768,2.4,1.608,3.435,2.592c0.311,0.265,0.455,0.625,0.455,0.937
			c0,0.265-0.07,0.504-0.238,0.672c-0.193,0.265-0.457,0.384-0.724,0.384c-0.264,0-0.504-0.096-0.719-0.312
			c-0.815-0.815-1.682-1.536-2.713-2.208c-0.889,3.48-2.832,5.76-6.024,7.08c-0.189,0.072-0.357,0.12-0.525,0.12
			c-0.361,0-0.648-0.168-0.793-0.504c-0.072-0.144-0.096-0.288-0.096-0.433c0-0.407,0.237-0.744,0.6-0.912
			c2.76-1.127,4.416-3.096,5.16-6.384c-1.752-1.056-4.08-1.849-6.146-2.112c-0.694,2.016-1.487,3.961-2.28,5.424
			c-1.224,2.305-2.448,3.025-3.864,3.025c-1.536,0-3.12-1.369-3.12-4.081c0-3.72,2.88-6.265,7.944-6.265
			C299.595,34.095,300.003,32.439,300.267,30.927z M292.994,41.944c0,1.512,0.648,2.184,1.368,2.184c0.696,0,1.392-0.479,2.28-2.184
			c0.647-1.248,1.296-2.76,1.824-4.345C294.986,37.6,292.994,39.448,292.994,41.944z"/>
		<path fill="#FFFFFF" stroke="#FFFFFF" stroke-width="0.25" stroke-miterlimit="10" d="M327.554,37.96
			c0,1.199-0.981,2.16-2.16,2.16c-1.198,0-2.157-0.961-2.157-2.16c0-1.2,0.959-2.16,2.157-2.16
			C326.572,35.8,327.554,36.784,327.554,37.96z"/>
		<path fill="#FFFFFF" stroke="#FFFFFF" stroke-width="0.25" stroke-miterlimit="10" d="M348.027,38.584
			c0.455,0,0.694,0.312,0.694,0.815c0,0.48-0.239,0.84-0.694,0.84h-3.193c1.033,1.609,2.258,2.857,3.602,3.841
			c0.191,0.144,0.312,0.408,0.312,0.673c0,0.191-0.072,0.407-0.193,0.576c-0.168,0.239-0.432,0.359-0.672,0.359
			c-0.168,0-0.336-0.048-0.479-0.191c-1.177-1.009-2.256-2.232-3.099-3.793c0.121,0.864,0.168,1.776,0.168,2.568v4.297
			c0,0.383-0.311,0.647-0.84,0.647c-0.504,0-0.793-0.265-0.793-0.647v-4.225c0-0.816,0.072-1.633,0.193-2.449
			c-0.744,1.824-2.041,3.457-3.529,4.682c-0.168,0.119-0.336,0.191-0.527,0.191c-0.264,0-0.504-0.12-0.694-0.359
			c-0.146-0.193-0.217-0.361-0.217-0.553c0-0.216,0.118-0.456,0.407-0.648c1.535-1.199,2.951-2.855,4.011-4.969h-3.289
			c-0.455,0-0.695-0.359-0.695-0.815c0-0.504,0.24-0.84,0.695-0.84h3.646v-2.089c0-0.408,0.289-0.623,0.793-0.623
			c0.527,0,0.84,0.215,0.84,0.623v2.089H348.027z M359.957,46.721c0.383,0,0.623,0.36,0.623,0.84s-0.24,0.841-0.623,0.841h-8.281
			c-1.416,0-2.062-0.576-2.062-2.041v-9.912c0-0.697,0.047-1.656,0.143-2.665c-0.047,0.097-0.119,0.169-0.168,0.24
			c-0.19,0.24-0.408,0.36-0.623,0.36c-0.096,0-0.19-0.024-0.289-0.072c-0.047,0.648-0.096,1.32-0.19,1.561
			c-0.168,0.527-0.601,0.936-1.486,0.959c-0.121,0.024-0.266,0.024-0.385,0.024c-0.386,0-0.744-0.048-0.984-0.144
			c-0.504-0.192-0.672-0.6-0.672-1.272v-3.864c0-0.359-0.168-0.504-0.6-0.504h-1.105c-0.432,2.641-1.488,4.584-3.479,6.265
			c-0.218,0.192-0.435,0.288-0.648,0.288s-0.432-0.096-0.6-0.288c-0.191-0.144-0.289-0.36-0.289-0.576
			c0-0.216,0.098-0.433,0.289-0.601c1.729-1.392,2.641-2.928,3.049-5.088h-2.281c-0.432,0-0.648-0.36-0.648-0.816
			c0-0.48,0.22-0.84,0.648-0.84h2.496c0.049-0.6,0.072-1.225,0.072-1.92c0-0.48,0.358-0.672,0.84-0.672
			c0.528,0,0.815,0.216,0.815,0.672c0,0.672-0.022,1.32-0.071,1.92h1.369c1.127,0,1.68,0.48,1.68,1.729v3.72
			c0,0.24,0.072,0.408,0.385,0.408c0.313,0,0.359-0.096,0.383-0.288c0.049-0.264,0.072-1.584,0.072-1.872
			c0-0.312,0.312-0.528,0.672-0.528c0,0,0.023,0,0.049,0c0.218,0.024,0.408,0.096,0.527,0.217c1.152-1.584,2.137-3.625,2.713-5.521
			c0.096-0.359,0.359-0.527,0.695-0.527c0.121,0,0.217,0.023,0.358,0.048c0.386,0.12,0.603,0.36,0.603,0.672
			c0,0.097-0.025,0.192-0.049,0.312c-0.336,0.984-0.863,2.16-1.488,3.169c0.408-0.071,0.984-0.144,1.369-0.144h1.92
			c0.623-1.225,1.104-2.328,1.438-3.385c0.097-0.312,0.336-0.48,0.673-0.48c0.096,0,0.217,0.024,0.358,0.049
			c0.359,0.096,0.603,0.336,0.603,0.647c0,0.097-0.023,0.192-0.05,0.288c-0.358,0.961-0.743,1.92-1.271,2.881h3.264
			c0.386,0,0.648,0.312,0.648,0.791c0,0.505-0.265,0.865-0.648,0.865h-3.405v3.527h2.831c0.384,0,0.646,0.312,0.646,0.769
			c0,0.504-0.264,0.84-0.646,0.84h-2.831v3.48h2.831c0.406,0,0.646,0.336,0.646,0.815c0,0.48-0.24,0.793-0.646,0.793h-2.831v4.032
			h3.645v-0.002H359.957z M352.011,32.464c-0.479,0-0.672,0.144-0.672,0.623v2.904h3.287v-3.527H352.011z M354.626,41.08V37.6
			h-3.287v3.48H354.626L354.626,41.08z M351.339,46.097c0,0.48,0.215,0.624,0.672,0.624h2.615v-4.032h-3.287V46.097z"/>
		<path fill="#FFFFFF" stroke="#FFFFFF" stroke-width="0.25" stroke-miterlimit="10" d="M369.458,30.903
			c0.432,0,0.648,0.312,0.648,0.792c0,0.456-0.218,0.84-0.648,0.84h-6.744c-0.432,0-0.647-0.36-0.647-0.84s0.217-0.792,0.647-0.792
			H369.458z M363.482,39.472c-0.408,0-0.603-0.359-0.603-0.792c0-0.432,0.193-0.792,0.603-0.792h5.614
			c0.386,0,0.603,0.36,0.603,0.792c0,0.433-0.217,0.792-0.603,0.792H363.482z M363.505,36.016c-0.408,0-0.6-0.36-0.6-0.792
			s0.19-0.792,0.6-0.792h5.594c0.386,0,0.601,0.36,0.601,0.792c0,0.408-0.215,0.792-0.601,0.792H363.505z M369.699,46.745
			c0,1.248-0.576,1.775-1.775,1.775h-3.217c-1.225,0-1.801-0.527-1.801-1.775V43c0-1.224,0.576-1.728,1.801-1.728h3.217
			c1.199,0,1.775,0.504,1.775,1.728V46.745z M363.578,29.031c-0.408,0-0.623-0.384-0.623-0.816c0-0.456,0.215-0.769,0.623-0.769
			h5.496c0.385,0,0.602,0.312,0.602,0.769c0,0.433-0.217,0.816-0.602,0.816H363.578z M367.394,47.032
			c0.408,0,0.625-0.144,0.625-0.576v-3.191c0-0.433-0.217-0.576-0.625-0.576h-2.157c-0.435,0-0.648,0.144-0.648,0.576v3.191
			c0,0.433,0.215,0.576,0.648,0.576H367.394z M373.13,41.752c0,0.048,0,0.072,0,0.12c-0.264,1.776-0.719,3.528-1.535,5.16
			c-0.145,0.289-0.408,0.433-0.694,0.433c-0.146,0-0.289-0.048-0.435-0.12c-0.287-0.168-0.455-0.48-0.455-0.792
			c0-0.12,0.023-0.24,0.072-0.337c0.742-1.416,1.199-3,1.439-4.656c0.069-0.383,0.358-0.552,0.741-0.552c0.05,0,0.121,0,0.193,0.024
			C372.843,41.104,373.13,41.368,373.13,41.752z M383.427,35.487c0.435,0,0.672,0.36,0.672,0.84s-0.237,0.84-0.672,0.84h-11.473
			c-0.455,0-0.672-0.359-0.672-0.815c0-0.504,0.217-0.864,0.672-0.864h4.537v-3.504h-4.969c-0.457,0-0.697-0.36-0.697-0.84
			c0-0.504,0.24-0.84,0.697-0.84h4.969v-2.833c0-0.432,0.336-0.672,0.887-0.672c0.553,0,0.865,0.24,0.865,0.672v2.833h5.567
			c0.455,0,0.695,0.336,0.695,0.84c0,0.479-0.24,0.84-0.695,0.84h-5.567v3.504L383.427,35.487L383.427,35.487z M374.164,40.84
			c0-0.407,0.336-0.672,0.863-0.672c0.504,0,0.889,0.265,0.889,0.672v5.521c0,0.576,0.119,0.721,1.463,0.721
			c1.248,0,1.683-0.145,1.922-0.457c0.215-0.287,0.336-1.127,0.383-2.136c0.023-0.336,0.312-0.576,0.722-0.576
			c0.049,0,0.071,0,0.121,0c0.526,0.048,0.791,0.337,0.791,0.792c0,0.024,0,0.024,0,0.049c-0.05,1.344-0.336,2.568-0.744,3.096
			c-0.408,0.456-0.863,0.696-2.088,0.792c-0.287,0.024-0.648,0.048-1.031,0.048c-0.385,0-0.771-0.023-1.152-0.023
			c-1.705-0.096-2.137-0.553-2.137-1.729L374.164,40.84L374.164,40.84z M379.923,40.168c0.191,0.168,0.267,0.384,0.267,0.601
			c0,0.191-0.072,0.383-0.218,0.576c-0.168,0.215-0.457,0.359-0.721,0.359c-0.168,0-0.336-0.048-0.457-0.191
			c-0.814-0.841-1.92-1.753-2.904-2.354c-0.264-0.144-0.356-0.359-0.356-0.6c0-0.168,0.071-0.336,0.188-0.48
			c0.168-0.239,0.408-0.359,0.674-0.359c0.146,0,0.312,0.048,0.479,0.145C377.908,38.464,378.962,39.231,379.923,40.168z
			 M382.107,40.937c0.286,0,0.526,0.144,0.672,0.384c0.842,1.512,1.514,3.072,2.018,4.632c0.023,0.072,0.047,0.168,0.047,0.24
			c0,0.36-0.237,0.648-0.576,0.792c-0.143,0.048-0.264,0.072-0.405,0.072c-0.312,0-0.603-0.168-0.695-0.504
			c-0.457-1.561-1.178-3.169-1.922-4.513c-0.07-0.12-0.096-0.216-0.096-0.312c0-0.287,0.217-0.527,0.526-0.695
			C381.82,40.96,381.964,40.937,382.107,40.937z"/>
	</g>
	<g>
		<path fill="#FFFFFF" d="M216.228,25.725c0.713-0.31,1.375-1.103,2.435-0.581c0.384,0.189,0.649,0.666,0.944,1.162
			c2.894,4.865,5.766,9.539,8.682,14.386c0.74,1.229,1.555,2.575,2.361,3.923c0.272,0.456,0.645,0.883,0.654,1.418
			c0.022,1.229-1.135,1.576-1.998,2.106c-3.938,2.417-7.881,4.772-11.879,7.192c-0.349,0.211-0.651,0.416-0.98,0.473
			c-0.41,0.07-0.883-0.063-1.091-0.182c-0.364-0.209-0.633-0.721-0.944-1.235c-1.883-3.112-3.85-6.372-5.703-9.409
			c-1.741-2.852-3.19-5.281-4.868-8.101c-0.532-0.896-1.292-1.826-1.562-2.761c-0.283-0.98,0.164-1.512,0.545-2.361
			c1.374-3.062,2.668-6.045,4.104-9.191c0.372-0.812,0.612-1.645,1.671-1.67c0.695-0.018,0.971,0.383,1.344,0.871
			c0.541,0.708,0.944,1.264,1.526,2.035c0.115,0.151,0.245,0.395,0.291,0.398c0.081,0.008,0.543-0.543,0.69-0.689
			c0.461-0.461,0.928-0.928,1.779-0.582c0.5,0.205,0.757,0.876,1.054,1.345C215.612,24.791,215.933,25.248,216.228,25.725z
			 M204.167,32.19c1.09-1.175,2.21-2.318,3.307-3.487c1.102-1.175,2.261-2.291,3.305-3.523c-0.771-0.911-1.432-1.935-2.216-2.833
			C207.11,25.617,205.542,28.964,204.167,32.19z M206.311,31.755c1.462-0.908,2.954-1.794,4.432-2.688
			c1.489-0.901,2.993-1.771,4.433-2.724c-0.398-0.551-0.744-1.194-1.09-1.744c-0.125-0.199-0.257-0.407-0.437-0.545
			C211.173,26.577,208.64,29.224,206.311,31.755z M217.79,26.451c-1.128,0.693-2.267,1.343-3.415,2.034
			c-3.09,1.859-6.218,3.79-9.372,5.667c-0.296,0.177-0.781,0.443-0.8,0.581c-0.007,0.049,0.198,0.44,0.327,0.654
			c0.869,1.437,1.794,2.929,2.615,4.287c2.778,4.59,5.45,8.962,8.21,13.549c0.136,0.226,0.56,1.165,0.8,1.199
			c0.151,0.021,0.616-0.317,0.871-0.473c4.083-2.47,8.003-4.837,12.062-7.265c0.158-0.095,0.767-0.409,0.799-0.581
			c0.02-0.107-0.179-0.406-0.327-0.654c-3.584-6.024-7.226-11.983-10.825-17.873c-0.245-0.4-0.416-0.892-0.8-1.199
			C217.842,26.376,217.835,26.423,217.79,26.451z"/>
	</g>
</g>
</svg>
